<svg xmlns="http://www.w3.org/2000/svg" viewBox="0 0 283.2 233.15"><defs><style>.cls-1{fill:#eac87e;}.cls-2{fill:#eccfd2;}.cls-3{fill:#d0e6f1;}.cls-4{fill:#343570;}.cls-5{fill:#7876ac;}.cls-6{fill:#dca2b9;}.cls-7{fill:#545691;}.cls-8{fill:#32346d;}.cls-9{fill:#c95842;}.cls-10{fill:#5e5451;}.cls-11{fill:#e8d948;}.cls-12{fill:#fff;stroke:#fff;stroke-miterlimit:10;stroke-width:0.25px;}</style></defs><title>crear-presentacion_1</title><g id="Capa_2" data-name="Capa 2"><g id="Capa_2-2" data-name="Capa 2"><path class="cls-1" d="M10.94,126.16,9.62,122.9l14.43-7.17a84.94,84.94,0,0,0,9.05-4.41l9.56-4.56a37.79,37.79,0,0,1,2.58,5c3.77,7.68,7.5,15.38,11.25,23.07,1.67,3.44,3.36,6.88,5,10.32.27.56.81,1.14.11,1.77-.28.11-.57.19-.83.32-4.92,2.44-9.92,4.71-14.76,7.3a4.71,4.71,0,0,0-1.49.6l-14.2,6.94c-1.32.65-1.36.64-2-.65-.08-.16-.15-.33-.23-.49-4.09-8.4-8.16-16.81-12.28-25.19a65.53,65.53,0,0,0-3-5.91A14.54,14.54,0,0,0,10.94,126.16Z"/><path class="cls-2" d="M46,154.55c4.84-2.59,9.84-4.86,14.76-7.3.26-.13.55-.21.83-.32.21.58-.29.71-.59.95L47.9,158.46c-5.5,4.42-11,8.85-16.51,13.24-1.64,1.3-1.26,1.36-2.56-.25Q14.73,153.9.64,136.34c-.12-.13-.22-.28-.34-.41a.82.82,0,0,1,.14-1.36c1-.77,2-1.56,2.94-2.35l7.56-6.06a14.54,14.54,0,0,1,1.86,3.69l-7.47,5.89c.46.62.8,1.1,1.17,1.56l19.85,24.75c1.23,1.54,2.51,3,3.72,4.6.34.43.64.47,1,.18.24-.18.46-.4.69-.58l13-10.41A3.41,3.41,0,0,0,46,154.55Z"/><path class="cls-3" d="M200.82,131.52h0Z"/><path class="cls-3" d="M205.19,74.28c-.12,1.62-.17,3.24-.32,4.86-.35,3.78-.77,7.56-1,11.35-.14,2.37-.4,4.73-.54,7.1-.09,1.61-.2,3.23-.34,4.85-.33,3.78-.77,7.56-1,11.36-.14,2.36-.38,4.72-.54,7.09-.11,1.74-.11,3.5-.38,5.22a28.74,28.74,0,0,0-.25,5.4c-.26.06-.27.2-.09.37a11.29,11.29,0,0,0-.42,2.22c-1.85-.73-3.71-1.46-5.56-2.21l-21.51-8.71c-1.4-.57-1.45-.59-1.34-2,.23-3.11.28-6.24.7-9.34.06-.44.05-.91.44-1.17a2.79,2.79,0,0,0,.42-.35,7.81,7.81,0,0,0,.65-.74l.21-.26.2-.24.21-.23a1.7,1.7,0,0,1,.19-.19l.22-.18a1.92,1.92,0,0,1,.46-.27l.27-.09a1.36,1.36,0,0,1,.29-.06,1.76,1.76,0,0,1,.41,0h0a.09.09,0,0,0,.07,0l.05,0a.15.15,0,0,0,0-.18c-.37-1,.56-1.31,1-1.78,2.16-2.16,4.4-4.25,6.59-6.38,2.74-2.65,5.45-5.32,8.18-8,.81-.68,1.67-1.29,2.4-2s1.84-1.11,2-2.31a30.23,30.23,0,0,0-4.83,4c-2.88,2.2-5.74,4.4-8.72,6.45-6.68,4.6-13.21,9.42-20.44,13.17a114.76,114.76,0,0,1-16.3,7.47c-.38,0-.75,0-1.12,0a11.21,11.21,0,0,1-11.1-5.84,117,117,0,0,1-8.76-19.2,4.5,4.5,0,0,0-.74-1.69c-1.48-4.83-2.8-9.69-3.83-14.63a28.82,28.82,0,0,0-.74-5.56,2.2,2.2,0,0,1,1.32-2.68c3.62-2,7.17-4.06,10.76-6.09.41-.23.78-.63,1.44-.51,3.94,9.85,7.9,19.74,11.91,29.74a5.56,5.56,0,0,0,1.91-1.39q6.61-4.71,13.23-9.45c4.65-3.34,9.28-6.72,13.92-10.09,2.32-1.35,4.39-3.05,6.57-4.59.18-.13.44-.26.36-.59-.41-.36-.67,0-.94.22-1.37,1-2.73,2-4.11,2.94-.44.3-.83.82-1.49.53l.06-1.36a1.7,1.7,0,0,0,.17-1.34c.06-1.42.06-2.85.19-4.26.35-3.88.71-7.75.7-11.65a16.84,16.84,0,0,1,1.87-.09c3.17.22,6.35.31,9.52.64a43.89,43.89,0,0,1,10.74,2.36,9.89,9.89,0,0,1,5.66,4.64,13.05,13.05,0,0,1,1.49,5.17A71.49,71.49,0,0,1,205.19,74.28Z"/><path class="cls-1" d="M252,43.07Q240.15,63.64,228.3,84.2,215.15,107,202,129.86c-.34.57-.51,1.27-1.13,1.64h0a28.74,28.74,0,0,1,.25-5.4c.27-1.72.27-3.48.38-5.22.16-2.37.4-4.73.54-7.09.23-3.8.67-7.58,1-11.36.14-1.62.25-3.24.34-4.85.14-2.37.4-4.73.54-7.1.23-3.79.65-7.57,1-11.35.15-1.62.2-3.24.32-4.86a71.49,71.49,0,0,0,.52-10.65,13.05,13.05,0,0,0-1.49-5.17,9.89,9.89,0,0,0-5.66-4.64,43.89,43.89,0,0,0-10.74-2.36c-3.17-.33-6.35-.42-9.52-.64a16.84,16.84,0,0,0-1.87.09c-.31,0-.62-.07-.93-.08-1.48-.07-1.5-.06-2-1.42-.92-2.65-1.83-5.31-2.74-8,.69,0,1.38-.06,2.06-.06h79.69C252.74,42.21,252.26,42.61,252,43.07Z"/><path class="cls-4" d="M200.31,134.1c.06,1-.65.39-1,.46-.63-.26-1.26-.53-1.89-.78s-1.08-.07-1.26.64c-.33,1.33-.64,2.67-1,4a19.5,19.5,0,0,1-12.24,13.46c-1.1.43-2.33.44-3.36,1.07a3.78,3.78,0,0,0-2,.1c-4.29.84-8.61,1.5-12.94,2.05a236.74,236.74,0,0,1-30.45,2c-3,0-3,0-4.59,2.51a4.15,4.15,0,0,0-.38.64.79.79,0,0,0,.09.71,6.06,6.06,0,0,0,.39,1.12,19.22,19.22,0,0,0,1,2.12,5.05,5.05,0,0,0,.12.56,1.83,1.83,0,0,0-.43-.57,2.47,2.47,0,0,0-.51.38c-1.31,1.81-2.57,3.66-3.91,5.44s-2.47,3.8-3.92,5.54a2.91,2.91,0,0,0-.33.66c-1,.7-1.36,1.89-2.16,2.73-.47.49-.4,1.16-.62,1.71s-1.18.52-1.5,1.23c-.87,1.95-2.59,3.3-3.61,5.13-.34.61-1.4,1-.65,2,.16.22-.15.28-.31.26-.92-.13-1.15.53-1.4,1.18h-.63a16.09,16.09,0,0,1-1.88-3.07c-.17-.42-.52-.3-.84-.31a14.87,14.87,0,0,1,2-2.51c6.78-8.5,13.45-17.09,19.62-26.06,1.52-2.21,3.19-4.32,4.83-6.44.3-.39.55-1,1.41-.89-.82,1.92-2.52,3.13-3.31,4.92a3.07,3.07,0,0,0,2,.27c3.44,0,6.89,0,10.32-.14,2.25-.1,4.5-.22,6.74-.39l1.92-.17,1.92-.18c2.14-.22,4.27-.46,6.4-.7,2.35-.26,4.71-.53,7.05-.89,3.39-.52,6.76-1.14,10.14-1.71A18.88,18.88,0,0,0,193,142.09a34.4,34.4,0,0,0,2.55-7.82c.27-1,.11-1.24-.95-1.68-3.35-1.38-6.71-2.73-10.06-4.11-4.22-1.72-8.46-3.41-12.64-5.21a15.27,15.27,0,0,0-4.1-1.14c-3.22-.41-6.45-.74-9.65-1.23a96.83,96.83,0,0,0-13.06-1c-2.31,0-4.62.14-6.93.19a133.37,133.37,0,0,0-17.51,1.67,22.85,22.85,0,0,0-5.63,1.33,14.78,14.78,0,0,0-7.82,8.19c-2.8,6.42-5.67,12.8-8.52,19.19Q92.3,164.77,85.9,179.05,78.6,195.4,71.26,211.73a2.32,2.32,0,0,0,0,2.4.08.08,0,0,0,0,0h-.72c-.8-.66-.34-1.36,0-2q3.93-8.82,7.87-17.63Q84.29,181.24,90.21,168l3.43-8.18a16,16,0,0,0,.82-1.46c.85-1.87,1.66-3.76,2.5-5.63,1.86-4.22,3.68-8.46,5.62-12.63,2.08-4.46,3.76-9.1,6.36-13.31.57-.19.85-.71,1.25-1.09a14.34,14.34,0,0,1,7.69-4l7.58-1.2c1.43-.14,2.86-.27,4.28-.43s2.79-.24,4.18-.35c2.62-.2,5.24-.19,7.86-.3l.88,0a12,12,0,0,0,2.89-.16l-1.77-.21c.36-.49.9-.27,1.37-.33s1.14.14,1.57-.37a114.76,114.76,0,0,0,16.3-7.47c7.23-3.75,13.76-8.57,20.44-13.17,3-2,5.84-4.25,8.72-6.45l.38.38c-2.73,2.65-5.44,5.32-8.18,8-2.19,2.13-4.43,4.22-6.59,6.38-.48.47-1.41.77-1,1.78a.15.15,0,0,1,0,.18l-.05,0a.09.09,0,0,1-.07,0h0a2.75,2.75,0,0,0-.41,0,1.36,1.36,0,0,0-.29.06l-.27.09a1.92,1.92,0,0,0-.46.27l-.22.18a1.7,1.7,0,0,0-.19.19l-.21.23-.2.24a11.88,11.88,0,0,1-.86,1,2.79,2.79,0,0,1-.42.35c-.39.26-.38.73-.44,1.17-.42,3.1-.47,6.23-.7,9.34-.11,1.42-.06,1.44,1.34,2l21.51,8.71C196.6,132.64,198.46,133.37,200.31,134.1Z"/><path class="cls-5" d="M121.57,176.19h0v0Z"/><path class="cls-5" d="M146.45,221.1l-1,.69a52.46,52.46,0,0,0-6.2,3.5l-.72.21L132.33,218q-5.93-7.12-11.56-14.49c-.69-.91-.85-1.56-.14-2.42,0,0-.08-.21-.12-.32-1.57.11-1.57.11-2.12-.56-.72-.87-.72-.88-.39-2.18-1.37.28-1.89-.63-2.37-1.63-.23-.49-.38-1.1-1.12-1.07l-.48,0-.33-.46c0-.42-.28-.71-.36-1.08v0a.94.94,0,0,0-.42-.74c0-.12-.07-.24-.1-.36l-.63,0,0,0-.39-1.48-.46-.75c.25-.65.48-1.31,1.4-1.18.16,0,.47,0,.31-.26-.75-1,.31-1.43.65-2,1-1.83,2.74-3.18,3.61-5.13.32-.71,1.26-.63,1.5-1.23s.15-1.22.62-1.71c.8-.84,1.17-2,2.16-2.73h0v0l0,0a2.91,2.91,0,0,1,.33-.66c1.45-1.74,2.56-3.73,3.92-5.54s2.6-3.63,3.91-5.44a2.47,2.47,0,0,1,.51-.38,1.83,1.83,0,0,1,.43.57,5.36,5.36,0,0,0,.79,1.63,65.08,65.08,0,0,0,2.34,6.34A326.66,326.66,0,0,1,147.29,219C147.5,220,147.55,220.74,146.45,221.1Z"/><path class="cls-6" d="M176.43,50.91c0,3.9-.35,7.77-.7,11.65-.13,1.41-.13,2.84-.19,4.26-.27.08-.58.08-.7.41-.37.23-.75.44-1.11.69q-5.56,3.84-11.12,7.68c-1.21.82-1,1-2.42,0l-9-6.42a21.48,21.48,0,0,1,.28-2.77c.49-2.49.87-5,1.32-7.5.48-2.67,1-5.35,1.48-8,1,0,2-.1,3-.09.73,0,1.13-.19,1.2-1,.2-2.23.49-4.46.74-6.69,0-.13.06-.27.1-.4.07-.41.13-.82.2-1.23s0-.59.05-.88c.17,0,.34-.2.51-.16a.66.66,0,0,0,.19.18v0a.29.29,0,0,0-.19-.14c-.16-.24,0-.47.19-.7s.46-.31.69-.48c-.16-.19-.34-.42-.15-.64s.62-.38.57-.85c-.07-.81.41-1.27,1-1.83a4.25,4.25,0,0,0,1.55-2.88,6.25,6.25,0,0,1,.5-1.91,2.7,2.7,0,0,0,.88-1.52,1.84,1.84,0,0,0-1.17.88A9,9,0,0,1,160.28,32a6.17,6.17,0,0,1-6-6.44,7.76,7.76,0,0,1,.71-4.11c.63.26,1.26.54,1.9.78L167,26c0,.19,0,.43-.05.55-1,1.27-.53,2.51-.06,3.82,1.33,3.68,2.59,7.38,3.87,11.07.91,2.65,1.82,5.31,2.74,8,.47,1.36.49,1.35,2,1.42C175.81,50.84,176.12,50.88,176.43,50.91Z"/><path class="cls-7" d="M217.59,14.59A19.63,19.63,0,0,1,211,20.84a43,43,0,0,1-14.66,5.49,49.71,49.71,0,0,1-12.88.76,30,30,0,0,1-12.76-3.41c-.91-.5-1.77-1.11-2.78-1.75-.16,1.5,0,2.91-.85,4.08l-10.17-3.76c-.64-.24-1.27-.52-1.9-.78a8.89,8.89,0,0,1,3.65-4.84,5.58,5.58,0,0,1,5.68-.72,3,3,0,0,0,1.81.12c10.14-1.85,20.29-3.66,30.43-5.49,6.58-1.19,13.15-2.41,19.72-3.62,2.37-.43,2.68-.24,2.87,2.16A9,9,0,0,1,217.59,14.59Z"/><path class="cls-5" d="M108.94,126.77c-2.6,4.21-4.28,8.85-6.35,13.31-2,4.17-3.76,8.41-5.63,12.63-.83,1.87-1.65,3.76-2.49,5.63-.23.51-.55,1-.82,1.46q-1.29-2.43-2.57-4.88c-1.07-2.39-2.15-4.77-3.21-7.16a15.62,15.62,0,0,1-.45-12.34,40.38,40.38,0,0,1,2-3.79,17.93,17.93,0,0,1,6.7-5.25A14.61,14.61,0,0,1,108.94,126.77Z"/><path class="cls-1" d="M159.48,41.48c-.07.41-.13.82-.2,1.23,0,.13-.07.27-.1.4-.25,2.23-.54,4.46-.74,6.69-.07.84-.47,1-1.2,1-1,0-2,.06-3,.09-1.26-.31-2.48.13-3.71.17a51.43,51.43,0,0,0-14.22,2.82c-2,.66-4,1.48-5.94,2.23A5.77,5.77,0,0,1,129.09,52c.11-1.56,0-3.12,0-4.68a6,6,0,0,0-.51-2.36c-.23-.51-.83-.9-1.2-.51-.8.85-2,.55-2.83,1.22-.5.39-.86.24-1.2-.32a4.33,4.33,0,0,1-.35-3.94h34.23C158,41.4,158.73,41.45,159.48,41.48Z"/><path class="cls-4" d="M123,41.39a4.3,4.3,0,0,0,.35,3.94c.33.56.7.71,1.19.32.83-.67,2-.37,2.84-1.22.36-.39,1,0,1.19.51a6,6,0,0,1,.51,2.36c0,1.56.1,3.12,0,4.68a5.86,5.86,0,0,0,1.29,4.16,36.61,36.61,0,0,0,2.23,5.4c.67.18,1-.48,1.66-.24.12.26.28.59.42.93L140,75.45c1.95,4.87,3.92,9.74,5.83,14.62.28.72.61.83,1.22.48h.75a5.56,5.56,0,0,1-1.91,1.39c-4-10-8-19.89-11.91-29.74-.66-.12-1,.28-1.44.51-3.59,2-7.14,4.12-10.76,6.09a2.21,2.21,0,0,0-1.32,2.68,28.07,28.07,0,0,1,.75,5.56h-.71c-.06-1.75-.51-3.46-.71-5.19a1.35,1.35,0,0,0-.87-1.1c-1.5-.78-3-1.58-4.48-2.36l-7.18-3.77c-.25.41-.46.71-.63,1-4.95,9.76-9.93,19.5-14.83,29.28-2.68,5.37-.76,10.86,4.53,13.69a9.82,9.82,0,0,0,13.75-5,6.45,6.45,0,0,1,1-2.2l.39.39-1.25,3.24c-.13.11-.25.26-.11.41s.28,0,.4-.09c1.7-.78,3.19-1.89,4.82-2.78.56-.31,1-.93,1.83-.67,0,.45-.28.65-.61.84-3.53,2.13-7,4.34-10.6,6.38-4,2.29-8.89,1.47-12.63-1.94a10.12,10.12,0,0,1-2.47-11.83c.76-1.71,1.66-3.35,2.51-5l12.8-25.24c.32-.61.43-1.53,1.54-1.19.39.12.49-.33.6-.59,1.49-3.57,3-7.11,4.39-10.74a10.24,10.24,0,0,0,.09-5.19,3,3,0,0,1,.17-2.32,4.67,4.67,0,0,0,.36-2.2,12.57,12.57,0,0,1,.59-3.12c.17-.47.43-1,1-1s.66.48.82.89a.49.49,0,0,0,.53.36c.3-.28.32-.78.43-1.23a11.34,11.34,0,0,1,1.09-3,1,1,0,0,1,.87-.61c.55,0,.77.4.88.83s.18,1.1.26,1.65-.15,1.13.2,1.61c.64.16.54-.42.73-.67s.47-.89.78-1.27,1-.38,1.3.27a3.91,3.91,0,0,1,.26,1.66C123,40,123,40.71,123,41.39Zm-2.94,27.39c.89,0,1.23-.45,1.08-1.29s-.31-1.44-.52-2.4a9.84,9.84,0,0,0-.56,3.7q-.21,0-.15.15a.15.15,0,0,0,.11,0A.66.66,0,0,0,120.08,68.78ZM113.28,46a5.7,5.7,0,0,0,1,3.26,80.66,80.66,0,0,0,5.09,8.53,6.74,6.74,0,0,1,1.08,2.56c.4,2.09.81,4.17,1.21,6.25.08.42.07.89.68,1.19,3-1.72,6.09-3.49,9.19-5.23.61-.34.51-.7.28-1.23-1-2.1-1.84-4.24-2.82-6.33a4.83,4.83,0,0,1-.5-3.07,20.25,20.25,0,0,0-.18-6c0-.36-.11-.74-.66-.84-.87.68-1,1.8-1.37,2.74-.32.7-.24,1.87-1.22,1.87-.79,0-.85-1.11-1.14-1.76a48.12,48.12,0,0,0-3.59-7c-.28-.44-.46-1.06-1.27-1a4.23,4.23,0,0,0,.06,2c.15.67.41,1.32.54,2s.55,1.34-.24,1.65-1-.56-1.29-1.07a22.06,22.06,0,0,0-2.48-3.74c-.27-.3-.53-.74-1.12-.4a11,11,0,0,0,1.1,4.47c.22.59.49,1.15.67,1.75a.85.85,0,0,1-.44.95.75.75,0,0,1-1-.15C114.35,47,114.17,46.31,113.28,46Zm.5,4.24a12.66,12.66,0,0,1-1.45,5q-1.71,4.05-3.34,8.13c-.45,1.1-.43,1.14.65,1.72q4,2.16,8.11,4.28c.34.19.67.59,1.33.26.35-2,.82-4.18,1-6.33a7.17,7.17,0,0,0-.87-4.35C117.5,56,115.6,53.18,113.78,50.21Zm5-14.45A10.44,10.44,0,0,0,117,40.61c-.06.85.59,2.08,2.11,4-.26-1-.56-2-.77-3-.15-.73-.4-1.61.14-2.16C119.5,38.35,119,37.29,118.82,35.76Zm3.28,6.38a13.71,13.71,0,0,0,.09-4.26C120.52,39.83,120.51,40.15,122.1,42.14ZM115.56,47c-.61-2.41-1-3.24-1.62-3.82C113.3,44.82,114.11,45.94,115.56,47ZM126,45.91c-2,.51-2.11.76-1,2.37A6.08,6.08,0,0,0,126,45.91Z"/><path class="cls-7" d="M121.58,5c-2.27,4.49-4.55,9-6.93,13.66L105.34,8c-.08,5,.35,9.47.45,14.25l-12.17-6a15,15,0,0,0,1.62,3.29c.53,1,1.1,2,1.65,2.95l1.58,2.77c.55,1,1.12,1.95,1.67,2.93s1.09,1.95,1.57,2.83c-.24.64-.67.5-1,.5H77.61c-.45,0-1.19.23-1.21-.49,0-.89.8-.58,1.28-.58,6.63,0,13.26,0,19.9,0h2c.39-.78-.2-1.23-.48-1.73-2.29-4.09-4.62-8.16-6.93-12.24-.46-.81-.91-1.62-1.38-2.47.59-.25.92.11,1.28.29l10.26,5.05c.45.22.89.46,1.35.64s.84,0,.83-.61,0-1.13-.06-1.69q-.25-6.18-.53-12.36c.64-.21.8.32,1.06.61,2.67,3.06,5.32,6.15,8,9.22.4.47.83.92,1.41,1.56C117.26,11.1,120,5.62,122.86,0a3.19,3.19,0,0,1,.23,1.67q0,11.07,0,22.14c0,.38,0,.75,0,1.13s-.08.63-.49.65-.58-.35-.59-.74,0-.88,0-1.32V5.14Z"/><path class="cls-3" d="M110.19,105.09l1.25-3.24,9.08-15.19,4,5.46a35.16,35.16,0,0,1,1.56,4.46l-9,5.38c-.78-.26-1.27.36-1.83.67-1.63.89-3.12,2-4.82,2.78Z"/><path class="cls-1" d="M184,161.13c.12-.24.24-.48.37-.72a1,1,0,0,1,.16-.39q1.5-2.45,3-4.89c.22-.44.42-.9.66-1.33l11.09-19.24c-.63-.26-1.26-.53-1.9-.78a.82.82,0,0,0-1.26.64c-.33,1.33-.63,2.67-1,4a19.47,19.47,0,0,1-12.23,13.46c-1.11.43-2.34.44-3.37,1.07.94,2.05,2.17,3.94,3.26,5.9a5.81,5.81,0,0,1,.73,1.43A9.09,9.09,0,0,1,184,161.13Z"/><path class="cls-3" d="M128.72,115.34h0s0,0,0,0h0A0,0,0,0,1,128.72,115.34Zm-1.19-1.15h0v0h0Z"/><path class="cls-3" d="M141.72,118.8a6.11,6.11,0,0,0-2.15-.53,1.64,1.64,0,0,1-1.39-.53c-3.25-2.76-3.76-3.79-5.66-7.33-.17-.33-.36-.65-.53-1-.78-1.49-1.06-1.63-2.69-1.42a16.84,16.84,0,0,0-1.36,4.59.84.84,0,0,0-.27.68c0,.31-.09.6-.14.91h0v0l-.29.34-.18.72c-.72,1.68-1,3.48-1.63,5.21,1.43-.14,2.86-.27,4.28-.43s2.79-.24,4.18-.35c2.62-.2,5.24-.19,7.86-.3C141.81,119.19,142.1,118.92,141.72,118.8Zm-13-3.43s0,0,0,0h0a0,0,0,0,0,0,0Z"/><path class="cls-4" d="M148.2,225.63c-3.68,2.56-7.36,5.13-11.27,7.52l2.76-6.85a64.35,64.35,0,0,0,5.77-4.51l1-.69a33.65,33.65,0,0,1,1.92,3.42C148.64,225,148.66,225.3,148.2,225.63Z"/><path class="cls-4" d="M73.34,224.9l-1.41-.62a75.22,75.22,0,0,0-7.84-3.63c-1.06-.7-2.39-.94-3.43-1.9l6.81-.94a2.82,2.82,0,0,1,.93.07c2.42,1,4.82,2,7.23,3,.3.13.16.44.21.66-.53.83-1.06,1.66-1.61,2.48C74,224.39,73.85,224.84,73.34,224.9Z"/><path class="cls-6" d="M75.84,221.56c0-.22.09-.53-.21-.66-2.41-1-4.81-2-7.23-3a2.82,2.82,0,0,0-.93-.07,4.43,4.43,0,0,1,1-1.27,13.07,13.07,0,0,0,2-2.38h.72v0c.11.41.39.49.77.39h0c1.26,1.27,3,1.8,4.49,2.64l1.92,1.29c-.06.55-.51.83-.84,1.19C77,220.27,76.42,220.92,75.84,221.56Z"/><path class="cls-4" d="M78.4,218.44l-1.92-1.29.42-.32c.23.1.46.18.68.29,2,1,1.69,1.22,3.46-.5,3.89-3.78,7.47-7.87,11.27-11.73l.39-.42c4.17-4.79,8.47-9.46,12.55-14.33a14.66,14.66,0,0,1,2.73-3c.31,0,.67-.11.83.31-.76,0-1,.68-1.39,1.13-2.57,3-5.09,6-7.67,8.94-5.93,6.82-12.12,13.41-18.46,19.86a6.82,6.82,0,0,0-.65.67A1.47,1.47,0,0,1,78.4,218.44Z"/><path class="cls-4" d="M138.54,225.5a.45.45,0,0,1-.77.13c-.4-.38-.74-.83-1.11-1.26-5.69-6.78-11.25-13.67-16.61-20.71-1.69-2.23-3.38-4.47-5-6.72a4.43,4.43,0,0,1-1-1.57l.48,0c.74,0,.89.58,1.12,1.07.48,1,1,1.91,2.37,1.63-.33,1.3-.33,1.31.39,2.18.55.67.55.67,2.12.56,0,.11.15.28.12.32-.71.86-.55,1.51.14,2.42q5.64,7.36,11.56,14.49Z"/><path class="cls-4" d="M146.72,118.38c-.43.51-1,.3-1.57.37s-1-.16-1.37.33c-.37.15-.83,0-1.12.37l-.88,0c0-.21.32-.48-.06-.6a6.11,6.11,0,0,0-2.15-.53,1.64,1.64,0,0,1-1.39-.53c-3.25-2.76-3.76-3.79-5.66-7.33-.17-.33-.36-.65-.53-1-.78-1.49-1.06-1.63-2.69-1.42,0-.12.09-.24.14-.37,1.19-.19,1.22-.24.66-1.17a1.68,1.68,0,0,0-.27-.26,3.73,3.73,0,0,0-.17-1.65c-1.2-2.65-2.37-5.32-3.55-8a36.8,36.8,0,0,0-1.56-4.46l.45-.45a4.5,4.5,0,0,1,.74,1.69,117,117,0,0,0,8.76,19.2,11.21,11.21,0,0,0,11.1,5.84C146,118.38,146.34,118.38,146.72,118.38Z"/><path class="cls-8" d="M160.23,40.62a.66.66,0,0,1-.19-.18.29.29,0,0,1,.19.14Z"/><path class="cls-8" d="M164.35,31.15a6.25,6.25,0,0,0-.5,1.91,4.25,4.25,0,0,1-1.55,2.88c-.55.56-1,1-1,1.83,0,.47-.34.59-.57.85s0,.45.15.64c-.23.17-.57.16-.69.48s-.35.46-.19.7c-.17,0-.34.12-.51.16-.09-2.14.39-4.23.51-6.35,0-.75.16-1.49.24-2.23a9,9,0,0,0,3.78-1.51C164.34,30.64,164.32,30.91,164.35,31.15Z"/><path class="cls-5" d="M113.34,193.81v0Z"/><path class="cls-6" d="M145.46,221.79a64.35,64.35,0,0,1-5.77,4.51,1.41,1.41,0,0,0-.43-1A52.46,52.46,0,0,1,145.46,221.79Z"/><path class="cls-3" d="M127.55,114.19h0v0h0Z"/><path class="cls-3" d="M128.72,115.34l0,0s0,0,0,0Z"/><path class="cls-4" d="M112.17,192.7a6.69,6.69,0,0,1-1.48-2.23h.63l.46.75Z"/><path class="cls-6" d="M160.23,40.58v0a.66.66,0,0,1-.19-.18A.29.29,0,0,1,160.23,40.58Z"/><path class="cls-3" d="M129.84,106.21a1.6,1.6,0,0,1,.26.26c.56.93.53,1-.65,1.17A1.94,1.94,0,0,1,129.84,106.21Z"/><path class="cls-4" d="M113.05,193.74l-.13.11a1.9,1.9,0,0,1-.73-1.12l.63,0c0,.12.07.24.1.36S113,193.52,113.05,193.74Z"/><path class="cls-4" d="M113.7,194.91a1.9,1.9,0,0,1-.78-1.06l.13-.11a.48.48,0,0,0,.29.09C113.42,194.2,113.75,194.49,113.7,194.91Z"/><path class="cls-3" d="M127.57,114.19v0l-.29.34c0-.18,0-.35.26-.35h0Z"/><path class="cls-9" d="M200.74,131.88c-.2-.18-.18-.32.1-.38Z"/><path class="cls-4" d="M175.37,68.16l-.06,1.36a3.34,3.34,0,0,1-.39,1.49c-4.64,3.37-9.27,6.75-13.92,10.09q-6.6,4.75-13.23,9.45H147c.18-.9.37-1.81.53-2.72.88-4.76,1.72-9.54,2.64-14.3a15.68,15.68,0,0,1,1-4.32l9,6.42c1.41,1,1.21.79,2.42,0q5.56-3.82,11.12-7.68c.36-.25.74-.46,1.11-.69C175.24,67.41,175.25,67.82,175.37,68.16Z"/><path class="cls-4" d="M125,91.67l-.45.45-4-5.46-9.08,15.19-.39-.39c1.14-3,2.26-6.07,3.43-9.09,2-5.12,4-10.23,6-15.34h.71C122.2,82,123.53,86.84,125,91.67Z"/><path class="cls-4" d="M174.93,71a3.33,3.33,0,0,0,.38-1.49c.66.29,1.06-.23,1.49-.53,1.39-1,2.74-2,4.11-2.94.28-.19.53-.58,1-.22.07.33-.19.46-.37.59C179.31,68,177.24,69.66,174.93,71Z"/><path class="cls-4" d="M192.56,91.67l-.38-.38a30.3,30.3,0,0,1,4.84-4c-.21,1.2-1.34,1.58-2.06,2.31S193.37,91,192.56,91.67Z"/><path class="cls-10" d="M175.37,68.16c-.12-.34-.13-.75-.53-.93.12-.33.43-.33.7-.41A1.7,1.7,0,0,1,175.37,68.16Z"/><path class="cls-5" d="M108,187.09a14.66,14.66,0,0,0-2.73,3c-4.08,4.87-8.38,9.54-12.55,14.33l-.39.42c-3.8,3.86-7.38,8-11.27,11.73-1.77,1.72-1.43,1.53-3.46.5-.22-.11-.45-.19-.68-.29-.58-.74.16-1.13.47-1.59q8.32-12.36,16.68-24.7l25.65-38.1c2.3-3.42,4.61-6.84,6.88-10.29a3.3,3.3,0,0,1,3.08-1.66c3.12,0,6.24-.07,9.36-.28,4-.27,8.12-.14,12.18-.43,2.93-.2,5.86-.13,8.8-.32,4.11-.26,8.24-.28,12.36-.4,4.44-.12,8.87-.51,13.31-.46l.56,0c.34,0,.62-.17.62-.55s-.31-.5-.64-.51H184.9c-2.75.06-5.49.11-8.24.31-3.49.25-7,.1-10.49.37s-7,.11-10.49.38-7.12.26-10.67.35c-5.38.15-10.74.6-16.12.49a3,3,0,0,0-2.87,1.64c-2.36,3.6-4.81,7.15-7.23,10.73l-21.6,32q-10,14.85-20,29.71c-.28.42-.55.84-.84,1.24-.81,1.12-.9,1.13-2.14.56-.72-.32-1.34-1-2.24-.79h0c-.08-.47-.4-.47-.76-.39v0a2.42,2.42,0,0,1,0-2.44q7.36-16.32,14.64-32.68,6.39-14.3,12.77-28.59c2.85-6.39,5.72-12.77,8.52-19.19a14.82,14.82,0,0,1,7.82-8.19,22.85,22.85,0,0,1,5.63-1.33,133.52,133.52,0,0,1,17.52-1.67c2.3,0,4.61-.23,6.92-.19a96.71,96.71,0,0,1,13.06,1c3.21.49,6.44.82,9.65,1.23a15.17,15.17,0,0,1,4.1,1.14c4.19,1.8,8.42,3.49,12.64,5.21,3.35,1.38,6.71,2.73,10.06,4.11,1.06.44,1.23.64.95,1.68a34.4,34.4,0,0,1-2.55,7.82,18.85,18.85,0,0,1-14.06,10.11c-3.38.57-6.76,1.19-10.15,1.71-2.34.36-4.69.63-7.05.89-3.41.38-6.82.77-10.24,1-2.24.17-4.49.29-6.73.39-3.44.17-6.88.12-10.33.14a3,3,0,0,1-1.94-.27c.79-1.79,2.49-3,3.31-4.92-.87-.1-1.12.5-1.41.89-1.64,2.12-3.32,4.23-4.84,6.44-6.17,9-12.83,17.56-19.62,26.06A14.81,14.81,0,0,0,108,187.09Z"/><path class="cls-3" d="M142.67,119.45c.28-.39.75-.22,1.11-.37l1.77.21A12,12,0,0,1,142.67,119.45Z"/><path class="cls-5" d="M121.59,176.17v0h0Z"/><path class="cls-3" d="M154.25,50.92c-.5,2.67-1,5.35-1.48,8-.45,2.5-.83,5-1.32,7.5a21.48,21.48,0,0,0-.28,2.77,15.68,15.68,0,0,0-1,4.32c-.92,4.76-1.76,9.54-2.64,14.3-.16.91-.35,1.82-.53,2.72-.6.35-.93.24-1.21-.48-1.92-4.88-3.88-9.75-5.83-14.62q-2.64-6.6-5.29-13.22c-.13-.34-.3-.67-.41-.93-.65-.24-1,.42-1.67.24a35.53,35.53,0,0,1-2.22-5.4c2-.75,3.93-1.57,5.94-2.23a51.43,51.43,0,0,1,14.22-2.82C151.77,51.05,153,50.61,154.25,50.92Z"/><path class="cls-8" d="M165.23,29.63a2.7,2.7,0,0,1-.88,1.52c0-.24,0-.51-.29-.64A1.84,1.84,0,0,1,165.23,29.63Z"/><path class="cls-3" d="M120.47,77c-2,5.11-4,10.22-6,15.34-1.17,3-2.29,6.06-3.43,9.09a6.45,6.45,0,0,0-1,2.2,9.82,9.82,0,0,1-13.75,5c-5.29-2.83-7.21-8.32-4.53-13.69,4.9-9.78,9.88-19.52,14.83-29.28.17-.32.38-.62.63-1l7.18,3.77c1.49.78,3,1.58,4.48,2.36a1.35,1.35,0,0,1,.87,1.1C120,73.57,120.41,75.28,120.47,77Z"/><path class="cls-6" d="M113.28,46c.89.34,1.07,1,1.53,1.42a.75.75,0,0,0,1,.15.85.85,0,0,0,.44-.95c-.18-.6-.45-1.16-.67-1.75a11,11,0,0,1-1.1-4.47c.59-.34.85.1,1.12.4a22.06,22.06,0,0,1,2.48,3.74c.31.51.51,1.37,1.29,1.07s.35-1.08.24-1.65-.39-1.32-.54-2a4.23,4.23,0,0,1-.06-2c.81-.06,1,.56,1.27,1a48.12,48.12,0,0,1,3.59,7c.29.65.35,1.75,1.14,1.76,1,0,.9-1.17,1.22-1.87.42-.94.5-2.06,1.37-2.74.55.1.62.48.66.84a20.25,20.25,0,0,1,.18,6A4.83,4.83,0,0,0,129,55c1,2.09,1.86,4.23,2.82,6.33.23.53.33.89-.28,1.23-3.1,1.74-6.18,3.51-9.19,5.23-.61-.3-.6-.77-.68-1.19-.4-2.08-.81-4.16-1.21-6.25a6.74,6.74,0,0,0-1.08-2.56,80.66,80.66,0,0,1-5.09-8.53A5.7,5.7,0,0,1,113.28,46Z"/><path class="cls-6" d="M113.78,50.21c1.82,3,3.72,5.82,5.47,8.75a7.17,7.17,0,0,1,.87,4.35c-.22,2.15-.69,4.28-1,6.33-.66.33-1-.07-1.33-.26q-4.08-2.11-8.11-4.28c-1.08-.58-1.1-.62-.65-1.72q1.64-4.08,3.34-8.13A12.66,12.66,0,0,0,113.78,50.21Z"/><path class="cls-6" d="M118.82,35.76c.16,1.53.68,2.59-.36,3.65-.54.55-.29,1.43-.14,2.16.21,1,.51,2,.77,3-1.52-1.93-2.17-3.16-2.11-4A10.44,10.44,0,0,1,118.82,35.76Z"/><path class="cls-6" d="M122.1,42.14c-1.59-2-1.58-2.31.09-4.26A13.71,13.71,0,0,1,122.1,42.14Z"/><path class="cls-6" d="M115.56,47c-1.45-1-2.26-2.16-1.62-3.82C114.58,43.74,115,44.57,115.56,47Z"/><path class="cls-3" d="M120.08,68.79a9.84,9.84,0,0,1,.56-3.7c.21,1,.38,1.68.52,2.4s-.19,1.31-1.08,1.29Z"/><path class="cls-6" d="M126,45.91a6.08,6.08,0,0,1-1,2.37C123.88,46.67,124,46.42,126,45.91Z"/><path class="cls-11" d="M120.08,68.78a.66.66,0,0,1,0,.15.15.15,0,0,1-.11,0q-.06-.16.15-.15Z"/><path class="cls-4" d="M110.48,105.41c-.12.1-.26.24-.4.09s0-.3.11-.41Z"/><path class="cls-3" d="M128.73,115.37h0l0,0A0,0,0,0,0,128.73,115.37Z"/><path class="cls-4" d="M72,214.51c.9-.18,1.52.47,2.24.79,1.24.57,1.33.56,2.14-.56.29-.4.56-.82.84-1.24q10-14.85,20-29.71l21.6-32c2.42-3.58,4.87-7.13,7.23-10.73a3,3,0,0,1,2.87-1.64c5.38.11,10.74-.34,16.12-.49,3.55-.09,7.13-.08,10.67-.35s7-.1,10.49-.38,7-.12,10.49-.37c2.75-.2,5.49-.25,8.24-.31h1.31c.33,0,.64.12.64.51s-.28.52-.62.55l-.56,0c-4.44,0-8.87.34-13.31.46-4.12.12-8.25.14-12.36.4-2.94.19-5.87.12-8.8.32-4.06.29-8.13.16-12.18.43-3.12.21-6.24.29-9.36.28a3.3,3.3,0,0,0-3.08,1.66c-2.27,3.45-4.58,6.87-6.88,10.29l-25.65,38.1q-8.34,12.35-16.68,24.7c-.31.46-1.05.85-.47,1.59l-.42.32C75,216.31,73.25,215.78,72,214.51Z"/><path class="cls-4" d="M71.24,214.13c.36-.08.68-.08.76.39C71.63,214.62,71.35,214.54,71.24,214.13Z"/><path class="cls-6" d="M160.23,40.58v0a.66.66,0,0,1-.19-.18A.29.29,0,0,1,160.23,40.58Z"/><path class="cls-5" d="M113.34,193.81v0Z"/><path class="cls-4" d="M113.34,193.81v0a.48.48,0,0,1-.29-.09c0-.22-.09-.45-.13-.67A.94.94,0,0,1,113.34,193.81Z"/><path class="cls-3" d="M246.93,108c.19,1.12-.63,1.9-1,2.85s-.67,1.63-1,2.44l24.49,11.38c1.56.72,1.58.71,2.37-.94q2.19-4.56,4.34-9.12c2.12-5.21,4.71-10.22,7-15.34L276.58,96a.55.55,0,0,1-.55-.33l-.09,0c-3.27-1.13-6.28-2.83-9.43-4.22-2.75-1.21-5.47-2.5-8.18-3.81-.88-.43-1.37-.48-1.85.58-2.65,5.89-5.38,11.74-8.08,17.6,1.34-.37,2.67-.8,4-1.11a13.79,13.79,0,0,1,8,.27,6.6,6.6,0,0,1,3.35,2.39,2.69,2.69,0,0,1-.35,3.42,2.59,2.59,0,0,1-3.42.16,2.64,2.64,0,0,1-.69-3.36c.24-.51.92-.75.89-1.63-4.54-1.43-8.75-.4-12.85,1.64-.07.24-.12.5-.47.41Z"/><path class="cls-12" d="M247.37,107.57c4.1-2,8.31-3.07,12.85-1.64,0,.88-.65,1.12-.89,1.63a2.64,2.64,0,0,0,.69,3.36,2.59,2.59,0,0,0,3.42-.16,2.69,2.69,0,0,0,.35-3.42,6.6,6.6,0,0,0-3.35-2.39,13.79,13.79,0,0,0-8-.27c-1.35.31-2.68.74-4,1.11l-2.54,1.29a24.15,24.15,0,0,0-11.56,11.65c-.33.73-.58,1.51-.86,2.26-.11.31-.07.58.3.68a.45.45,0,0,0,.53-.28c.24-.53.44-1.09.67-1.63a23,23,0,0,1,10.76-11.5c.39-.2.75-.48,1.23-.29h0C246.87,107.63,247.11,107.59,247.37,107.57Z"/></g></g></svg>