<svg xmlns="http://www.w3.org/2000/svg" viewBox="0 0 113.5 188.94"><defs><style>.cls-1{fill:#d0e6f1;}.cls-2{fill:#545691;}.cls-3{fill:#32346d;}.cls-4{fill:#ebcbc4;}.cls-5{fill:#71739d;}.cls-6{fill:#30302e;}.cls-7{fill:#b3a83e;}.cls-8{fill:#313875;}.cls-9{fill:#313870;}.cls-10{fill:#31397d;}.cls-11{fill:#333c88;}.cls-12{fill:#31397a;}.cls-13{fill:#30345b;}.cls-14{fill:#323a84;}.cls-15{fill:#313977;}.cls-16{fill:#35408e;}.cls-17{fill:#31387c;}.cls-18{fill:#31397c;}.cls-19{fill:#313978;}.cls-20{fill:#30324c;}.cls-21{fill:#bfa19a;}.cls-22{fill:#bc9e98;}.cls-23{fill:#fff;}.cls-24{fill:#c7a9a1;}.cls-25{fill:#ba9d96;}.cls-26{fill:#bea29a;}.cls-27{fill:#333b89;}.cls-28{fill:#2e2e2e;}</style></defs><title>emprezar-presentacion</title><g id="Capa_2" data-name="Capa 2"><g id="Capa_1-2" data-name="Capa 1"><path class="cls-1" d="M56.7,54.27a24.07,24.07,0,0,0,9.19-3.54c8-5.08,16-10,24-15.08,4-2.5,7.93-5,11.89-7.55A1.34,1.34,0,0,1,102,28l.32.31a9.9,9.9,0,0,0,.22,1.21,15.42,15.42,0,0,1,.7,2.91c-.22.13-.49.23-.51.57.14.39.45.32.76.24l.23.1.09.6c.09.41.17.81.28,1.31-3.59,4.39-7.33,8.69-11.12,13-.82.23-1.29.94-1.9,1.46a3.16,3.16,0,0,0-1.46,1.43,4.5,4.5,0,0,0-1.15.44c-.46.29-.74.87-1.36.92-.36.32-.87.16-1.3.39-.09.45-.52.68-.76,1.07a.83.83,0,0,1,.15.63c-.17,0-.35.15-.49,0a.55.55,0,0,0-.6-.18c-.25,0-.47,0-.53.33s-.58.31-.7.65.2.38.12.6c-.3.22-.52,0-.75-.13a1.87,1.87,0,0,0-.89.59c-.21.11.23.43,0,.65l-.4,0c-.26.13,0,.59-.46.63l-.65-.35c-.43,0-.44.71-.9.6-.46.3-.08,1-.61,1.19-.9-.59-1.09-.57-2,.23-.22,0-.44,0-.54.28h0c-.29,0-.65-.07-.78.33a.69.69,0,0,0-.3.79.34.34,0,0,0,0,.2c-.26.07-.55,0-.72.26a1,1,0,0,0-.06.67c-.85.18-1.41.9-2.21,1.19a4,4,0,0,0-1.75,1,1.15,1.15,0,0,1-1,.3l-.08,0,.1,0A4.6,4.6,0,0,1,66.2,65.6c.29,1.33-.18,2.65,0,4,0,.14,0,.27-.06.41-.1,3.08-.24,6.16-.3,9.24,0,2.12-.11,4.23-.3,6.34-.54.07-1.09.13-1.63.23l-9.19,1.7L51.16,84c-.31.06-.46.13-.5.46l3.14,3.17a4,4,0,0,1-.63.23l-7,1.31-1.09-1.76c-.32-.51-.62-1-1-1.52-.18-.26-.42-.35-.68.09l1.91,3.28a4.83,4.83,0,0,1-.64.22l-12,2.24c.53-3.27,1.08-6.54,1.6-9.81.08-.53.39-1.05.15-1.62a8.77,8.77,0,0,0,.62-3,5.54,5.54,0,0,0,.26-2.34,16,16,0,0,0-2.71,1.88c-.28,0-.56-.42-.82,0H31.5c-.37.14-.66.42-1.05.58A1.53,1.53,0,0,0,29.28,79l-.82.57c-.35-.12-.26-.73-.76-.69a1.29,1.29,0,0,0-.62.7l0,.55v0L26,79.8,22.7,81.72c0,.25.14.49-.12.65l-.2-.09c-.19-.28-.39-.33-.6,0l-.24.32a.18.18,0,0,0-.19,0l-.87-1.17a.36.36,0,0,0-.6-.05c-.08.53.42.82.58,1.25,0,.22-.08.44-.32.53s-.19.49-.43.64c-.14-.1-.22-.31-.51-.27-.28.24-.75.34-1,.77l-.06.24c-.17.12-.17.22,0,.3h0c-.24.69-.89.86-1.45,1.16-.39-.24.37-.57-.07-.81a1.18,1.18,0,0,0-.79.62c.1.22.53.36.12.64-.36.06-.37-.54-.79-.4v.6c-.32.21-.55-.07-.85-.08a4.65,4.65,0,0,1-3.16,1c-.41,0-.83,0-1.24,0a2.62,2.62,0,0,1-2.86-1.88A27.38,27.38,0,0,1,5.4,79.64a3,3,0,0,1,0-1.85,11.26,11.26,0,0,1-.88-5.55l.39.09a.3.3,0,0,0,.27-.3v-.46c0-.47-.68-.22-.76-.61,0-.21,0-.38.21-.46s0,.64.54.3c0-.39,0-.77-.52-.94l-.47.21,0-.48c.27-.33.7.1,1-.22L4.7,67c-.34-.53-.6-.35-.85-.26,0-.69,0-1.37,0-2.06a33.51,33.51,0,0,0,3.37-2c0-.31,0-.45-.29-.53a18.59,18.59,0,0,1-3,1.48c-.11,0-.18.2-.27.3-.25-.53.07-1.05,0-1.6a21.08,21.08,0,0,1-.16-3.89c.22-.14.5-.22.54-.53s-.54,0-.57-.16a6.19,6.19,0,0,1-.17-1.89L4,55.81c.21.22.43.3.69-.06a4.53,4.53,0,0,0-1.4-1.49l0-2.19,5.84-2.33a1,1,0,0,1,.67,0,.48.48,0,0,0,.07.2.32.32,0,0,0,0,.27l0,.29-.29.69a.54.54,0,0,0,.49.41c.24.19.24.48.32.74q2,6.94,4.06,13.89c.49,1.67.89,3.36,1.54,5,.89-.19,1.44-.93,2.25-1.13l2.68,4.46c.31.06.44,0,.63-.19-.79-1.57-1.86-3-2.74-4.62A11.74,11.74,0,0,1,20,69c3.51-2.08,7-4.21,10.57-6.22A40.87,40.87,0,0,1,38,59.19c2.49-.8,5-1.5,7.57-2a4.72,4.72,0,0,0,.79,1.32c.33,0,.45-.11.5-.4L46.18,57l1.92-.59.83-.06a.89.89,0,0,0,.11,1,2,2,0,0,0,1,.85,5.87,5.87,0,0,0,5-.55,2,2,0,0,0,1-1.81c0-.46,0-.92,0-1.37Zm-23,36.41c.77-1,2.51-5.24,2.26-5.51a.35.35,0,0,0-.38,0,29.87,29.87,0,0,0-2.13,5.28C33.48,90.46,33.59,90.52,33.74,90.68Zm26.9-21.59c-.62,1.53-1.3,3.18-2,4.84-.11.3,0,.54.51.54.74-1.74,1.5-3.52,2.12-5.33A.54.54,0,0,0,60.64,69.09Zm-31,3.21c.42-.49.21-.7,0-.89q-1.83-1.78-3.69-3.55s-.16,0-.23,0-.21.19-.21.49ZM89.32,42.72c-.33.42-.21.65,0,.74,1.56.7,3.11,1.38,4.68,2,.27.11.57.06.53-.49ZM38.75,75.26c0,.28,0,.4.17.46,1.59.71,3.19,1.42,4.79,2.11.25.11.43,0,.48-.32A16.23,16.23,0,0,0,38.75,75.26Zm39.3-25.84c1.53-.9,3.19-1.85,4.81-2.87l-.26-.46c-1.48.58-5,2.7-5,3C77.65,49.27,77.73,49.36,78.05,49.42Zm21-11.94a16.82,16.82,0,0,0-3.5-4.7c-.27.24-.16.48,0,.72,1,1.37,2,2.75,3,4.12,0,.05.16,0,.24.06ZM11,69.16c-.51-.31-.68-.12-.8.17-.63,1.53-1.26,3.06-1.86,4.6-.12.29,0,.55.51.53Zm46.35-7-4.92,2.92c0,.35.12.48.41.55l4.63-2.76C57.61,62.52,57.55,62.4,57.33,62.14ZM70.16,49.27q1.28,1.84,2.58,3.69c.16.22.32.45.49.66s.36.27.57.07c-.33-1.1-3-4.81-3.4-4.79ZM35.31,67.62c1.6-1.2,4.22-3.81,4.1-4.12l-.29-.22c-2,1.66-4.2,3.82-4.09,4.14ZM63.9,59.19a15.86,15.86,0,0,0,5.26,2.51l.31-.39c-1.52-.91-3.17-1.44-4.72-2.19A.65.65,0,0,0,63.9,59.19ZM48.7,69.55c-1-1.35-1.89-2.71-2.86-4-.17-.24-.35-.59-.75-.29C45.41,66.2,48,70,48.37,70,48.51,69.94,48.62,69.87,48.7,69.55ZM14.29,79.71c-.29-.27-.52-.22-.69,0q-1.85,1.77-3.66,3.55c-.15.14-.1.34.06.48A19.77,19.77,0,0,0,14.29,79.71Zm45.88,4c.3,0,.47,0,.55-.1,1.34-1.25,2.67-2.51,3.93-3.71,0-.36-.17-.44-.35-.5A17,17,0,0,0,60.17,83.75Zm-11.9-3.17c.13,0,.29.14.37.1a29.59,29.59,0,0,0,4-4.11l-.3-.24A20.78,20.78,0,0,0,48.27,80.58ZM73.71,61.39c-.77-.45-.77-.45-1,.09ZM5.09,73c-.23,0-.3.16-.36.35.13.15.11.43.39.48C5.27,73.56,5.36,73.28,5.09,73Z"/><path class="cls-2" d="M62.05,92.57a28.4,28.4,0,0,0,3.66,1.93c7.4,3.66,14.8,7.31,22,11.35a61,61,0,0,1,6.57,4.09c2.43,1.78,2.6,2.25,1.83,5.12A58.5,58.5,0,0,1,93,123.35c-3.6,8.29-7.73,16.33-11.92,24.33-1.86,3.55-3.77,7.08-5.67,10.61-.24.45-.52.87-.78,1.3-2.71-1.07-5.54-1.8-8.29-3a40.5,40.5,0,0,1,2.07-4.28,3.79,3.79,0,0,0,.46-1.14A5.67,5.67,0,0,1,70,148.76a7.67,7.67,0,0,0,.89-1.35c.62-.37.58-.86.26-1.4h0c.27-.11.28-.33.24-.57,0-.72.47-1.25.61-1.9l.23-.32c0-.07,0-.14,0-.21.22,0,.39.24.72.15a3.44,3.44,0,0,0,1.09-2.76c.28-.16.63-.32.67-.75a9.6,9.6,0,0,0,1.91-4.16l.54-.57-.28-.54v-.55l.8,0a1.73,1.73,0,0,0,.7-1.21c-.57-.46-.86.24-1.27.3-.21-.13-.21-.32-.26-.49a14.42,14.42,0,0,1,1.28-2.91c.42-.1.74.4,1.07,0-.08-.42-.63-.55-.64-1.13.44-.51.44-1.35.93-2l.68.21c.36.12.31.68.73.69a3.32,3.32,0,0,0,.83-2.17c-.27-.2-.75-.19-.69-.7.14-.07.28-.15.1-.46l-.1.46-.29-.28v-.84l.08-.26a.3.3,0,0,0,0-.47,1.89,1.89,0,0,0-.94-.07,3.17,3.17,0,0,1-1.71-.33,2.49,2.49,0,0,0-1.32-.27,33,33,0,0,0-4.52-1.06C68,119.87,63.6,119,59.2,118.07c-1.47-.3-3-.57-4.45-.85l-2-.46a80.45,80.45,0,0,1-12.38-4,.73.73,0,0,0-.19-.2,10.33,10.33,0,0,1-4.87-6.71c-.19-.75,0-1.57-.46-2.26a30.79,30.79,0,0,1,.33-6.8,1.21,1.21,0,0,1,.8-.34l11.43-1.64c4.18-.58,8.36-1.13,12.53-1.74A4.72,4.72,0,0,0,62.05,92.57Zm20.14,31-.45-.3c-.1-.07-.21-.16-.33,0,.15.35.12.79.45,1,.35.07.66.13.84-.25S82.57,123.54,82.19,123.58Zm.47-2.89a7.5,7.5,0,0,0,4.88-.78c.21-.11.51-.25.25-.71C86.25,120.27,84.38,120.19,82.66,120.69Zm-10.3,23.24c.33.13.4,0,.29-.29C72.47,143.65,72.39,143.75,72.36,143.93Z"/><path class="cls-2" d="M48.18,39.37a7.43,7.43,0,0,1,1.68-2.66,3.93,3.93,0,0,1,3.94-1.4,3,3,0,0,0,.33-.51l6-17.29a2.61,2.61,0,0,0,.06-.27l4-11.2Q65.13,3.37,66.06.7c.09-.25.11-.55.39-.7,1.48.3,15.89,5.07,16.89,5.6a4.4,4.4,0,0,1-.9,1.19Q72.85,17.7,63.25,28.59A23.27,23.27,0,0,0,61,31.34c-1.91,1.87-3.57,4-5.36,6A8.8,8.8,0,0,1,56.08,42Z"/><path class="cls-3" d="M62.05,92.57a4.72,4.72,0,0,1-2.11.51c-4.17.61-8.35,1.16-12.53,1.74L36,96.46a1.21,1.21,0,0,0-.8.34,30.79,30.79,0,0,0-.33,6.8l-.29.31,0-1.07c0-1.08,0-2.16,0-3.24a.28.28,0,0,0,0-.13c-.14-.12-.09.2-.14,0A3.52,3.52,0,0,0,34,100.6h0c-.27.13-.28.36-.24.61-.15,1.12-.7,2.12-.95,3.2-.47,1.94-1.65,3.67-1.67,5.74,0,.15-.24.29-.3.45-.31,1-1,1.88-1,3a4.33,4.33,0,0,1-.85,2.54.55.55,0,0,0-.25.56h0c-.32.2-.26.52-.28.83-.05.12-.18.26-.16.37a2.83,2.83,0,0,1-.86,2.55c-.08.09-.07.26-.1.39-.41.28-.07.56,0,.83h0a.37.37,0,0,0-.28.28A9.69,9.69,0,0,0,25.91,126c-1,.34-.27,1.61-1.06,2.15l.19.82a.92.92,0,0,0-.51,1,1.87,1.87,0,0,1-.31,1.18,15.16,15.16,0,0,0-1.42,3.19c-.19.42.05.8-.05,1.18l-.5.45.25.49c-.31.87-1.16,1.42-1.28,2.38a1.59,1.59,0,0,0-.51,1.14c-.15.42-.47.85-.43,1.26s-.38.77-.45,1.19a4.26,4.26,0,0,0-.79,2l-.29.55c-.53.48-.18.94,0,1.4h0c-.43,0-.84,0-.81.57a2.08,2.08,0,0,0-.07,1.76c-.4,0-.54.11-.48.41l-.3.57h0A15.49,15.49,0,0,0,16,152.11l-.08.5a2,2,0,0,0-.45.9,55.46,55.46,0,0,1-2.15,5.67,11.68,11.68,0,0,0-.66,2c-.41.27-.31.78-.53,1.14-.11.57-.41,1.07-.54,1.64s-.6,1.09-.71,1.69a7.5,7.5,0,0,1-.75,2.13.33.33,0,0,0-.2.33.75.75,0,0,0,0,.26,2.73,2.73,0,0,0-.55,1.39c-.1.25-.31.47-.15.83.33.37.89.33,1.36.45,2.74.74,5.49,1.43,8.24,2.13a.74.74,0,0,1-.21.54c-1.42-.35-2.85-.69-4.27-1.06-1.82-.46-3.63-.94-5.6-1.46-.25,1.22-1.09,2.15-1,3.43,1.32.33,2.57.63,3.8,1a51.26,51.26,0,0,1,5,1.35l-.16.34c-.82.08-1.52-.4-2.3-.38a20.25,20.25,0,0,0-2.77-.76c-1.76-.5-3.58-.79-5.31-1.41.5-1.44,1-2.88,1.5-4.3q12.53-34.3,25.07-68.61c.71-1.94,1.32-3.92,2.19-5.81l1.49-.18L43,95c2.26-.32,4.52-.67,6.79-1s4.52-.7,6.79-1c1.81-.22,3.6-.63,5.44-.7Z"/><path class="cls-4" d="M62.23,86.77A2.29,2.29,0,0,0,62,88.1c0,1.11,0,2.21,0,3.32-.41,0-.83.07-1.24.13L50.24,93.13c-3.31.5-6.63,1-10,1.51-1.72.24-3.43.64-5.18.71a2.83,2.83,0,0,1,.21-1.07,11.44,11.44,0,0,0,.61-2.52c.41-.1.8-.21,1.21-.29l17.08-3.24C56.89,87.73,59.56,87.26,62.23,86.77Z"/><path class="cls-3" d="M80.2,126.58l-.68-.21c-.49.63-.49,1.47-.93,2,0,.58.56.71.64,1.13-.33.4-.65-.1-1.07,0a14.42,14.42,0,0,0-1.28,2.91c-.21.45-.4.91-.63,1.36a5.42,5.42,0,0,0-.73,3c0,.07-.08.15-.13.23s-.46-.11-.73.23l-.56,1.54A27.07,27.07,0,0,0,72.25,143c0,.07,0,.14,0,.21a.33.33,0,0,0-.23.32c-.14.65-.66,1.18-.61,1.9a.54.54,0,0,0-.24.57h0c-.56.38-.22.92-.26,1.4a7.67,7.67,0,0,1-.89,1.35,5.67,5.67,0,0,0-1.06,2.43,3.79,3.79,0,0,1-.46,1.14,40.5,40.5,0,0,0-2.07,4.28c2.75,1.18,5.58,1.91,8.29,3a.55.55,0,0,1-.28.52l-8.15-2.85a1.49,1.49,0,0,0-.93-.11l0-.64c.07-.26.13-.53.22-.78l9.6-26.06c.87-2.36,1.74-4.73,2.63-7.13l-.82-.37v-.29a2.49,2.49,0,0,1,1.32.27,3.17,3.17,0,0,0,1.71.33c.21.33.72.16.92.54l-.08.26c-.18.1-.19.21,0,.32v.52c-1,.81-1,.8-.45,2.09C80.36,126.3,80.25,126.46,80.2,126.58Z"/><path class="cls-3" d="M87.11,52.47c.62,0,.9-.63,1.36-.92a4.5,4.5,0,0,1,1.15-.44,3.16,3.16,0,0,1,1.46-1.43l.64,0A61.25,61.25,0,0,1,80.41,60c-4.08,2.86-8.17,5.7-12.31,8.47-.61.41-1.25.77-1.88,1.15-.2-1.32.27-2.64,0-4a4.6,4.6,0,0,0,2.72-1.31h0a1.15,1.15,0,0,0,1-.3,4,4,0,0,1,1.75-1c.8-.29,1.36-1,2.21-1.19.38-.05.5-.46.81-.61.77,0,1.24-.65,1.91-.84a.88.88,0,0,0,.59-.49h0a1.75,1.75,0,0,0,.83-.53c.12-.08.27-.14.28-.32v0c.53-.23.15-.89.61-1.19.46.11.47-.56.9-.6l.65.35c.46,0,.2-.5.46-.63l.4,0c.26-.22-.18-.54,0-.65a1.87,1.87,0,0,1,.89-.59c.23.13.45.35.75.13.08-.22-.26-.37-.12-.6s.49-.4.7-.65c.26.15.3.78.78.4.2-.36-.15-.49-.25-.73a.55.55,0,0,1,.6.18c.14.19.32.07.49,0l2.14-1.66Zm-7.86,5.91c.12.15.23.09.32,0s0-.09,0-.1S79.29,58.22,79.25,58.38Z"/><path class="cls-3" d="M73.29,169.83a.59.59,0,0,1-.31.53c-.85.07-1.6-.53-2.46-.74l-1.8-.67c-2.18-.82-4.35-1.66-6.53-2.49.8-1.94,1.6-3.88,2.57-5.83,1.95.71,3.87,1.16,5.66,2-.3.67-.59,1.34-.89,2A16.08,16.08,0,0,0,73.29,169.83Z"/><path class="cls-2" d="M65.31,157.15a1.49,1.49,0,0,1,.93.11l8.15,2.85a17.35,17.35,0,0,1-1.55,2.8L64.52,160C64.65,158.93,65.27,158.12,65.31,157.15Z"/><path class="cls-3" d="M62.23,86.77c-2.67.49-5.34,1-8,1.46L37.14,91.47c-.41.08-.8.19-1.21.29l-.3,0a.94.94,0,0,0-.82.19l-2,.26a.41.41,0,0,1-.11-.55l12-2.24a4.83,4.83,0,0,0,.64-.22l.82-.09,7-1.31a4,4,0,0,0,.63-.23l.94-.1,9.19-1.7c.54-.1,1.09-.16,1.63-.23v.49Z"/><path class="cls-2" d="M35.11,95.35c1.75-.07,3.46-.47,5.18-.71,3.32-.47,6.64-1,10-1.51l10.49-1.58c.41-.06.83-.09,1.24-.13v.84c-1.84.07-3.63.48-5.44.7-2.27.29-4.53.65-6.79,1s-4.53.68-6.79,1l-6.66.93-1.49.18C34.74,95.76,35,95.57,35.11,95.35Z"/><path class="cls-3" d="M103.82,34l-.09-.6c1.47-1.33,2.67-2.9,4.08-4.28a10.78,10.78,0,0,0,2.73-4.39c.13-.39.3-.77.4-1.17a6.45,6.45,0,0,1,.85-1.87.27.27,0,0,0,.21-.27.53.53,0,0,0,.12-.22.87.87,0,0,0,.5-.87l.09-.06-.07.07a.77.77,0,0,0-.56.5c-.26.11-.47.36-.8.31a1.28,1.28,0,0,1,.27-1.16c.22-.34.54-.64.54-1.09.4-.27.24.34.48.31l.11.34-.12,0,.1-.05c.21-.08.41-.23.67-.08s.18.48.08.74a1.4,1.4,0,0,1-.26.48,13.07,13.07,0,0,0-2.3,4.65,10.15,10.15,0,0,1-2.37,3.82C106.89,30.67,105.49,32.44,103.82,34Z"/><path class="cls-3" d="M65.31,157.15c0,1-.66,1.78-.79,2.88l8.32,2.88c-.13.35-.39.27-.65.2a5.48,5.48,0,0,0-1.77-.48c-1.79-.84-3.71-1.29-5.66-2-1,2-1.77,3.89-2.57,5.83-.18,0-.37,0-.46-.22-.11-.36.14-.62.26-.9.55-1.32,1.13-2.63,1.69-3.94a2.16,2.16,0,0,0,.3-.77c0-1.52.75-2.78,1.3-4.12Z"/><path class="cls-3" d="M102.33,28.32,102,28c.78-.79,1.82-1.22,2.66-1.93.89-1.43,1.77-2.87,2.69-4.29a17.74,17.74,0,0,1,2.41-3,4.37,4.37,0,0,1,1.77-1.25c.07.21.26.38.2.63a.87.87,0,0,1-.5.44c0-.23-.2-.3-.37-.18a2.77,2.77,0,0,0-1,1,16.34,16.34,0,0,0-3.09,4.19A10.76,10.76,0,0,1,102.33,28.32Z"/><path class="cls-3" d="M111.24,18.62a.87.87,0,0,0,.5-.44c.06-.25-.13-.42-.2-.63a1.23,1.23,0,0,1,.81-.2l.68.87a1.46,1.46,0,0,1-.46.94c-.24,0-.08-.58-.48-.31l-1.44,1.38c-.36,0-.5-.15-.49-.48C110.55,19.4,110.78,18.9,111.24,18.62Z"/><path class="cls-3" d="M91.72,49.63l-.64,0c.61-.52,1.08-1.23,1.9-1.46A4.48,4.48,0,0,1,91.72,49.63Z"/><path class="cls-4" d="M56.08,42a3.16,3.16,0,0,1-.06.69,15,15,0,0,0-.28,5.75c.1,1.51.11,3,.18,4.55a2.93,2.93,0,0,0,.21,1.49c0,.45,0,.91,0,1.37a2,2,0,0,1-1,1.81,5.87,5.87,0,0,1-5,.55,2,2,0,0,1-1-.85.89.89,0,0,1-.11-1A.78.78,0,0,0,49,56a23.08,23.08,0,0,0,4.48-7.48,1.07,1.07,0,0,0,.33-1,1.08,1.08,0,0,0-.64.77,4,4,0,0,1-3,1.57,3.94,3.94,0,0,1-2.55-3,10.37,10.37,0,0,1-.19-4.33c0-.27.18-.53-.09-.75a9.76,9.76,0,0,1,.88-2.46Z"/><path class="cls-4" d="M7.7,40.19c.27,1.37.53,2.75.81,4.12a48.43,48.43,0,0,0,1.35,5.4,1,1,0,0,0-.67,0L3.35,52.07a4.43,4.43,0,0,1,.18-2.33,1.3,1.3,0,0,1-.23-1c.13-1.36,0-2.72,0-4.08,0-1.84,0-3.67,0-5.51A5.18,5.18,0,0,0,3,36.85c0-.7,0-1.4,0-2.1a2.67,2.67,0,0,0,.21-1.33,10.69,10.69,0,0,1,.68-3.06c.37.35-.09,1,.46,1.22.53,0,.47-.43.58-.75l.49.54c.66.4.45-.46.8-.55.25,1.31-.44,2.66,0,3.93a.61.61,0,0,0,.7-.29c.43.39.07.92.24,1.36,0,.3,0,.6,0,.9a.43.43,0,0,0,.29.49c0,.5,0,1,0,1.51a.71.71,0,0,0,.33.7A1.08,1.08,0,0,0,7.7,40.19Z"/><path class="cls-3" d="M3.49,57.81a6.19,6.19,0,0,1-.17-1.89L4,55.81c-.05-.42-.55-.43-.65-.7a1.27,1.27,0,0,1-.06-.85l0-2.19a4.43,4.43,0,0,1,.18-2.33,1.3,1.3,0,0,1-.23-1c.13-1.36,0-2.72,0-4.08,0-1.84,0-3.67,0-5.51-.46.75-.11,1.58-.22,2.36-.06.41.18.9-.3,1.19a5.05,5.05,0,0,1-.06.67.43.43,0,0,1,0,.11l0,0a98.41,98.41,0,0,1,.1,10.83,7.36,7.36,0,0,1,0,1.15h.06c.06,1.46.12,2.82.18,4.19A.63.63,0,0,0,3.24,59a.55.55,0,0,1,.28-.53c.22-.14.5-.22.54-.53S3.52,58,3.49,57.81Z"/><path class="cls-4" d="M110.16,19.75c0,.33.13.52.49.48a.57.57,0,0,1,.32.51.42.42,0,0,0,.31.36c.33,0,.54-.2.8-.31l0,.36a.53.53,0,0,1-.12.22.28.28,0,0,0-.21.27,6.45,6.45,0,0,0-.85,1.87c-.1.4-.27.78-.4,1.17a10.78,10.78,0,0,1-2.73,4.39c-1.41,1.38-2.61,3-4.08,4.28l-.23-.1c0-.3.06-.61-.25-.81a15.42,15.42,0,0,0-.7-2.91,9.9,9.9,0,0,1-.22-1.21,10.76,10.76,0,0,0,4.46-4.67,16.34,16.34,0,0,1,3.09-4.19Z"/><path class="cls-3" d="M34.43,80.25l-3.69,2.1c-.39-.15-.76-.58-1.18-.06l-.82.45a4.39,4.39,0,0,0-1.42.66c-2.7,1-5.34,2.09-8.1,2.9-.3.09-.62.15-.92.22L18,86.26c.92-.23,1.35-1.14,2.11-1.54l.12-1.23c.48.3.44,1,1,1.26a.59.59,0,0,0,.55-.32c.06-.33-.32-.44-.34-.72l.49-.37.1,0-.15-.13h0c0-.23.08-.49-.25-.58l.24-.32.6,0,.2.09c-.27.46-.47.9.22,1.28.89-.81,2-1.38,2.94-2.11l.5-.34a4.52,4.52,0,0,0,1.12-.81,2.24,2.24,0,0,0,1.1-.84l.82-.57c.74-.46,1.47-.93,2.2-1.4.4-.15.31-.5.3-.81h0c.28.14.56.48.82,0a16,16,0,0,1,2.71-1.88,5.54,5.54,0,0,1-.26,2.34A8.77,8.77,0,0,1,34.43,80.25Z"/><path class="cls-3" d="M18,86.26l.35.26a25.68,25.68,0,0,1-8.5,1.61,3,3,0,0,1-3-2A25.19,25.19,0,0,1,5.21,81.3,74.71,74.71,0,0,1,3.78,72c-.37-3.57-.6-7.16-.78-10.75,0-.56,0-1.11,0-1.66A.63.63,0,0,0,3.24,59a.55.55,0,0,1,.28-.53,21.08,21.08,0,0,0,.16,3.89c0,.55-.28,1.07,0,1.6a.63.63,0,0,0,.19.73c0,.69,0,1.37,0,2.06a26.2,26.2,0,0,1,.27,2.81l0,.48a3.79,3.79,0,0,0,0,1.5h1V72l-.27.3-.39-.09a11.26,11.26,0,0,0,.88,5.55,3,3,0,0,0,0,1.85,27.38,27.38,0,0,0,1.72,6.08A2.62,2.62,0,0,0,10,87.6c.41,0,.83,0,1.24,0a4.65,4.65,0,0,0,3.16-1c.3,0,.53.29.85.08V86c.42-.14.43.46.79.4.41-.28,0-.42-.12-.64a1.18,1.18,0,0,1,.79-.62c.44.24-.32.57.07.81C17.08,86.37,17.55,86.18,18,86.26Z"/><path class="cls-3" d="M27.36,80.39a4.52,4.52,0,0,1-1.12.81c0-.25.05-.53-.26-.74a.83.83,0,0,0-.74.9l.5.18c-1,.73-2,1.3-2.94,2.11-.69-.38-.49-.82-.22-1.28.26-.16.09-.4.12-.65L26,79.8l1.09.29Z"/><path class="cls-3" d="M33.74,90.68c-.15-.16-.26-.22-.25-.28a29.87,29.87,0,0,1,2.13-5.28.35.35,0,0,1,.38,0C36.25,85.44,34.51,89.73,33.74,90.68Z"/><path class="cls-3" d="M60.64,69.09a.54.54,0,0,1,.67,0c-.62,1.81-1.38,3.59-2.12,5.33-.52,0-.62-.24-.51-.54C59.34,72.27,60,70.62,60.64,69.09Z"/><path class="cls-3" d="M29.61,72.3l-4.12-4c0-.3.07-.4.21-.49s.19,0,.23,0q1.86,1.77,3.69,3.55C29.82,71.6,30,71.81,29.61,72.3Z"/><path class="cls-3" d="M89.32,42.72,94.53,45c0,.55-.26.6-.53.49-1.57-.66-3.12-1.34-4.68-2C89.11,43.37,89,43.14,89.32,42.72Z"/><path class="cls-3" d="M38.75,75.26a16.23,16.23,0,0,1,5.44,2.25c0,.27-.23.43-.48.32-1.6-.69-3.2-1.4-4.79-2.11C38.79,75.66,38.71,75.54,38.75,75.26Z"/><path class="cls-3" d="M78.05,49.42c-.32-.06-.4-.15-.43-.3,0-.33,3.5-2.45,5-3l.26.46C81.24,47.57,79.58,48.52,78.05,49.42Z"/><path class="cls-3" d="M99.08,37.48l-.29.2c-.08,0-.21,0-.24-.06-1-1.37-2-2.75-3-4.12-.17-.24-.28-.48,0-.72A16.82,16.82,0,0,1,99.08,37.48Z"/><path class="cls-3" d="M11,69.16l-2.15,5.3c-.54,0-.63-.24-.51-.53.6-1.54,1.23-3.07,1.86-4.6C10.3,69,10.47,68.85,11,69.16Z"/><path class="cls-3" d="M57.33,62.14c.22.26.28.38.12.71l-4.63,2.76c-.29-.07-.38-.2-.41-.55Z"/><path class="cls-3" d="M18,86.26c-.4-.08-.87.11-1.19-.29.56-.3,1.21-.47,1.45-1.16.19,0,.46,0,.47-.27s-.25-.27-.45-.27c.22-.43.69-.53,1-.77.29,0,.37.17.51.27.24-.15.13-.53.43-.64l0,.36-.12,1.23C19.3,85.12,18.87,86,18,86.26Z"/><path class="cls-3" d="M70.16,49.27l.24-.37c.45,0,3.07,3.69,3.4,4.79-.21.2-.41.13-.57-.07s-.33-.44-.49-.66Q71.44,51.11,70.16,49.27Z"/><path class="cls-3" d="M35.31,67.62l-.28-.2c-.11-.32,2-2.48,4.09-4.14l.29.22C39.53,63.81,36.91,66.42,35.31,67.62Z"/><path class="cls-3" d="M63.9,59.19a.65.65,0,0,1,.85-.07c1.55.75,3.2,1.28,4.72,2.19l-.31.39A15.86,15.86,0,0,1,63.9,59.19Z"/><path class="cls-3" d="M48.7,69.55c-.08.32-.19.39-.33.43-.37,0-3-3.78-3.28-4.77.4-.3.58.05.75.29C46.81,66.84,47.75,68.2,48.7,69.55Z"/><path class="cls-3" d="M54.74,87.49l-.94.1-3.14-3.17c0-.33.19-.4.5-.46Z"/><path class="cls-3" d="M14.29,79.71a19.77,19.77,0,0,1-4.29,4c-.16-.14-.21-.34-.06-.48q1.82-1.78,3.66-3.55C13.77,79.49,14,79.44,14.29,79.71Z"/><path class="cls-3" d="M60.17,83.75a17,17,0,0,1,4.13-4.31c.18.06.33.14.35.5-1.26,1.2-2.59,2.46-3.93,3.71C60.64,83.73,60.47,83.7,60.17,83.75Z"/><path class="cls-3" d="M18.39,70.08c.12-.23.35-.28.57-.35.88,1.58,1.95,3,2.74,4.62-.19.23-.32.25-.63.19Z"/><path class="cls-3" d="M48.27,80.58a20.78,20.78,0,0,1,4.07-4.25l.3.24a29.59,29.59,0,0,1-4,4.11C48.56,80.72,48.4,80.62,48.27,80.58Z"/><path class="cls-3" d="M3.84,64.72A.63.63,0,0,1,3.65,64c.09-.1.16-.27.27-.3a18.59,18.59,0,0,0,3-1.48c.25.08.34.22.29.53A33.51,33.51,0,0,1,3.84,64.72Z"/><path class="cls-3" d="M46.14,89.13l-.82.09-1.91-3.28c.26-.44.5-.35.68-.09.34.5.64,1,1,1.52Z"/><path class="cls-3" d="M4.12,69.59a26.2,26.2,0,0,0-.27-2.81c.25-.09.51-.27.85.26l.41,2.33C4.82,69.69,4.39,69.26,4.12,69.59Z"/><path class="cls-1" d="M87.11,52.47l.23.43L85.2,54.56a.83.83,0,0,0-.15-.63c.24-.39.67-.62.76-1.07C86.24,52.63,86.75,52.79,87.11,52.47Z"/><path class="cls-1" d="M76.61,60.39c-.67.19-1.14.85-1.91.84l0-.32a.34.34,0,0,1,0-.2.55.55,0,0,0,.49-.19.51.51,0,0,0-.19-.6c.13-.4.49-.28.78-.33,0,.12-.05.32.18.37.12-.22,0-.29-.18-.38.1-.24.32-.27.54-.28A1.42,1.42,0,0,1,76.61,60.39Z"/><path class="cls-3" d="M31.48,77.58c-.73.47-1.46.94-2.2,1.4a1.53,1.53,0,0,1,1.17-1.62c.39-.16.68-.44,1.05-.58Z"/><path class="cls-3" d="M21.84,83.34l-.49.37-.89-1.11c-.16-.43-.66-.72-.58-1.25a.36.36,0,0,1,.6.05l.87,1.17a.88.88,0,0,0,.44.59h0A1.21,1.21,0,0,1,21.84,83.34Z"/><path class="cls-1" d="M76.61,60.39a1.42,1.42,0,0,0-.28-1.09c.89-.8,1.08-.82,2-.23v0l-.44.09.16.23a1.75,1.75,0,0,1-.83.53c0-.22.08-.49-.19-.65-.24.33-.06.5.18.65A.88.88,0,0,1,76.61,60.39Z"/><path class="cls-3" d="M20.46,82.6l.89,1.11c0,.28.4.39.34.72a.59.59,0,0,1-.55.32c-.52-.26-.48-1-1-1.26l0-.36C20.38,83,20.43,82.82,20.46,82.6Z"/><path class="cls-3" d="M27.36,80.39l-.3-.3v0c.27-.18.41-.35,0-.55a1.29,1.29,0,0,1,.62-.7c.5,0,.41.57.76.69A2.24,2.24,0,0,1,27.36,80.39Z"/><path class="cls-3" d="M5.16,71.57h-1a3.79,3.79,0,0,1,0-1.5l.47-.21c.53.17.55.55.52.94-.49.34-.27-.34-.54-.3s-.23.25-.21.46C4.48,71.35,5.12,71.1,5.16,71.57Z"/><path class="cls-3" d="M45.56,57.14l.62-.19.67,1.11c-.05.29-.17.4-.5.4A4.72,4.72,0,0,1,45.56,57.14Z"/><path class="cls-3" d="M4,55.81c-.05-.42-.55-.43-.65-.7a1.27,1.27,0,0,1-.06-.85,4.53,4.53,0,0,1,1.4,1.49C4.46,56.11,4.24,56,4,55.81Z"/><path class="cls-5" d="M103.25,32.44c.31.2.26.51.25.81-.31.08-.62.15-.76-.24C102.76,32.67,103,32.57,103.25,32.44Z"/><path class="cls-3" d="M73.71,61.39l-1,.09C72.94,60.94,72.94,60.94,73.71,61.39Z"/><path class="cls-1" d="M74.67,60.91l0,.32c-.31.15-.43.56-.81.61a1,1,0,0,1,.06-.67C74.12,61,74.41,61,74.67,60.91Z"/><path class="cls-1" d="M84.11,54.34c.1.24.45.37.25.73-.48.38-.52-.25-.78-.4C83.64,54.38,83.86,54.33,84.11,54.34Z"/><path class="cls-3" d="M10,50.47a.17.17,0,0,1,.2.05v1a.54.54,0,0,1-.49-.41Z"/><path class="cls-3" d="M75,59.92a.51.51,0,0,1,.19.6.55.55,0,0,1-.49.19A.69.69,0,0,1,75,59.92Z"/><path class="cls-3" d="M5.09,73c.27.27.18.55,0,.83-.28,0-.26-.33-.39-.48C4.79,73.17,4.86,73,5.09,73Z"/><path class="cls-3" d="M32.6,76.75c-.26.5-.54.16-.82,0C32,76.33,32.32,76.74,32.6,76.75Z"/><path class="cls-1" d="M18.23,84.27c.2,0,.45,0,.45.27s-.28.24-.47.27h0l0-.3Z"/><path class="cls-1" d="M21.79,83.16a.88.88,0,0,1-.44-.59.18.18,0,0,1,.19,0C21.87,82.67,21.79,82.93,21.79,83.16Z"/><path class="cls-3" d="M31.48,77.58l0-.8h.28C31.79,77.08,31.88,77.43,31.48,77.58Z"/><path class="cls-1" d="M22.38,82.28l-.6,0C22,82,22.19,82,22.38,82.28Z"/><path class="cls-3" d="M27.08,79.56c.39.2.25.37,0,.55Z"/><path class="cls-1" d="M18.17,84.51l0,.3C18,84.73,18,84.63,18.17,84.51Z"/><path class="cls-6" d="M68.92,64.29l-.1,0,.08,0Z"/><path class="cls-7" d="M4.9,72.33l.27-.3A.3.3,0,0,1,4.9,72.33Z"/><path class="cls-3" d="M40.37,112.77a80.45,80.45,0,0,0,12.38,4l2,.46-.3.28c-.59.1-1.14-.32-1.76-.18L52,118.5l-5.63,9.25s-.1,0-.12-.06c-.21-.57-.39-1.15-.64-1.7a9.7,9.7,0,0,1-.77-1.59,3.42,3.42,0,0,0-1.19-2.1,3.69,3.69,0,0,0-1-2.88c-.08-.23-.21-.44-.07-.71s0-.31-.19-.4h0c0-.68-.52-1.13-.83-1.66.08-.58-.43-.73-.73-1,.28-1-.47-1.7-.66-2.55Z"/><path class="cls-3" d="M54.45,117.5l.3-.28c1.49.28,3,.55,4.45.85,4.4.91,8.81,1.8,13.19,2.75a33,33,0,0,1,4.52,1.06v.29a5.42,5.42,0,0,1-.81-.07c-5.7-1.18-11.41-2.34-17.11-3.56A33.89,33.89,0,0,1,54.45,117.5Z"/><path class="cls-3" d="M74.1,138.77l.56-1.54c.27-.34.54-.06.73-.23s.13-.16.13-.23a5.42,5.42,0,0,1,.73-3c.23-.45.42-.91.63-1.36.05.17.05.36.26.49.41-.06.7-.76,1.27-.3a1.73,1.73,0,0,1-.7,1.21c0-.28-.06-.53-.41-.51s-.37.28-.39.55v.55l-.46-.16c-.1.36-.47.61-.27,1.07.12.17.3.17.47.2a9.6,9.6,0,0,1-1.91,4.16C74.8,139.16,74.27,139.09,74.1,138.77Z"/><path class="cls-3" d="M40.37,112.77l-.29.3c-.75,0-1.06-.68-1.55-1.07a10.54,10.54,0,0,1-4-8.09l.29-.31c.47.69.27,1.51.46,2.26a10.33,10.33,0,0,0,4.87,6.71A.73.73,0,0,1,40.37,112.77Z"/><path class="cls-8" d="M74.1,138.77c.17.32.7.39.63.88s-.39.59-.67.75A3.44,3.44,0,0,1,73,143.16c-.33.09-.5-.11-.72-.15A27.07,27.07,0,0,1,74.1,138.77Z"/><path class="cls-3" d="M80.2,126.58c0-.12.16-.28.13-.37-.53-1.29-.53-1.28.45-2.09l.29.28h0c-.06.51.42.5.69.7a3.32,3.32,0,0,1-.83,2.17C80.51,127.26,80.56,126.7,80.2,126.58Z"/><path class="cls-3" d="M82.66,120.69c1.72-.5,3.59-.42,5.13-1.49.26.46,0,.6-.25.71A7.5,7.5,0,0,1,82.66,120.69Z"/><path class="cls-3" d="M76.64,135.49c-.17,0-.35,0-.47-.2-.2-.46.17-.71.27-1.07l.46.16.28.54Z"/><path class="cls-3" d="M82.7,124.09c-.18.38-.49.32-.84.25-.33-.26-.3-.7-.45-1,.12-.17.23-.08.33,0l.45.3Q82.13,124.15,82.7,124.09Z"/><path class="cls-9" d="M70.86,147.41c0-.48-.3-1,.26-1.4C71.44,146.55,71.48,147,70.86,147.41Z"/><path class="cls-3" d="M76.91,133.83c0-.27.06-.54.39-.55s.42.23.41.51Z"/><path class="cls-3" d="M80.86,123c-.2-.38-.71-.21-.92-.54a1.89,1.89,0,0,1,.94.07A.3.3,0,0,1,80.86,123Z"/><path class="cls-3" d="M82.7,124.09q-.57.06-.51-.51C82.57,123.54,82.78,123.67,82.7,124.09Z"/><path class="cls-8" d="M72.36,143.93c0-.18.11-.28.29-.29C72.76,144,72.69,144.06,72.36,143.93Z"/><path class="cls-3" d="M81.07,124.4l.1-.46c.18.31,0,.39-.1.46Z"/><path class="cls-9" d="M71.12,146a.54.54,0,0,1,.24-.57C71.4,145.68,71.39,145.9,71.12,146Z"/><path class="cls-3" d="M80.77,123.6c-.18-.11-.17-.22,0-.32Z"/><path class="cls-8" d="M72,143.54a.33.33,0,0,1,.23-.32Z"/><path class="cls-3" d="M53.45,48.56A23.08,23.08,0,0,1,49,56l1.45-5.65-.62-.24.33-.28a4,4,0,0,0,3-1.57Z"/><path class="cls-3" d="M50.13,49.87l-.33.28A2.46,2.46,0,0,1,48,49a8.15,8.15,0,0,1-1-6.84c0-.12.17-.2.26-.3.27.22.13.48.09.75a10.37,10.37,0,0,0,.19,4.33A3.94,3.94,0,0,0,50.13,49.87Z"/><path class="cls-3" d="M11.23,181.78l-2.38,4.34a21.89,21.89,0,0,0,6,2.18.66.66,0,0,1,.26.62l-14.58,0c.56-1.35,1.13-2.7,1.66-4.07a34.62,34.62,0,0,0,1.64-4.21c1.65.22,3.32.42,5,.68A7,7,0,0,1,11.23,181.78Z"/><path class="cls-3" d="M3.87,180.66a34.62,34.62,0,0,1-1.64,4.21c-.53,1.37-1.1,2.72-1.66,4.07l-.57,0c.5-1.72,1.32-3.32,2-5,.43-1.12.89-2.21,1.34-3.32Z"/><path class="cls-2" d="M44.26,131.06a7.41,7.41,0,0,1-1,1.82q-11.86,19.68-23.78,39.34a2.62,2.62,0,0,1-.71,1c-2.75-.7-5.5-1.39-8.24-2.13-.47-.12-1-.08-1.36-.45-.16-.36.05-.58.15-.83a1.74,1.74,0,0,1,.83-.27,1.1,1.1,0,0,0,.77.69c0-.59-.39-.67-.77-.69l-.28-1.12a.75.75,0,0,1,0-.26.33.33,0,0,0,.2-.33,7.5,7.5,0,0,0,.75-2.13c.11-.6.58-1.13.71-1.69s.43-1.07.54-1.64c.4-.17.69.17,1,.35,0-1,0-1-.51-1.49a11.68,11.68,0,0,1,.66-2,55.46,55.46,0,0,0,2.15-5.67c.4-.06.74.37,1.2.13.08-.14.23-.31,0-.5-.16,0-.26.29-.44.05l-.34-.58.08-.5c.73.08,1.14-.43,1.56-.76.21-.75-.27-1.21-.47-1.75h0c.42,0,.95.16,1.22-.4-.31-.26-.63-.14-.92-.17-.06-.3.08-.41.48-.41a2.08,2.08,0,0,1,.07-1.76l.81-.57h0l.44.13c.3-.46.44-.87-.25-1.1-.23-.08-.17-.27-.22-.43l.29-.55.57.23c.4-.18.6-.42.39-.77s.41-.57.27-1l-.44-.4c.07-.42.5-.66.45-1.19s.28-.84.43-1.26l.45.16a.57.57,0,0,0,.32-.43l-.26-.87c.12-1,1-1.51,1.28-2.38l-.25-.49.5-.45c.1-.38-.14-.76.05-1.18a15.16,15.16,0,0,1,1.42-3.19,1.87,1.87,0,0,0,.31-1.18.92.92,0,0,1,.51-1l-.19-.82c.79-.54.07-1.81,1.06-2.15a9.69,9.69,0,0,1,1.15-4.06.33.33,0,0,0,.28-.28h0c.51-.28.05-.55,0-.83s0-.3.1-.39a2.83,2.83,0,0,0,.86-2.55c0-.11.11-.25.16-.37.22,0,.46,0,.49-.35l-.21-.48h0l.44-.11a.33.33,0,0,0-.19-.45,4.33,4.33,0,0,0,.85-2.54c0-1.08.7-2,1-3,.06-.16.29-.3.3-.45,0-2.07,1.2-3.8,1.67-5.74.25-1.08.8-2.08.95-3.2a.58.58,0,0,0,.24-.61h0c.39.23.25.62.29,1s-.12.9.24,1.28l0,1.07a10.54,10.54,0,0,0,4,8.09c.49.39.8,1,1.55,1.07.19.85.94,1.56.66,2.55.3.3.81.45.73,1-.63,0-.66.48-.79,1,.71-.09,1.09.44,1.62.65h0c-.19.32-.54.4-.84.55h0c-.15-.23-.13-.61-.51-.67l-.19.23a.57.57,0,0,0,.42.46l-.28.27a1.14,1.14,0,0,0,0,1.6c.18.24.34.45.22.73-.19.44.29.64.3,1-.28,1.06-.19,1.86.24,2l.27-.53c.27-.14.72,0,.95-.35.53-.08.53.53.81.65l1.12.17a9.7,9.7,0,0,0,.77,1.59c.25.55.43,1.13.64,1.7,0,0,.08,0,.12.06a18.13,18.13,0,0,1-2.08,3.32c-.56-1-.87-1.27-1.34-.92,0,.31-.2.69.15,1.09C43.46,131.25,43.8,130.64,44.26,131.06Zm-2-4a4.84,4.84,0,0,0,1.31-.63c.31,0,.62.3.93-.16-.27-.24-.08-.73-.49-1-.43.48-1.21.23-1.5.91-.24-.26-.41-.44-.63-.11S42,126.79,42.23,127.11ZM16.8,154.2c-.39-.19-.68-.26-1,0a1.14,1.14,0,0,0,.09,1.14C16.53,155.21,16.58,154.73,16.8,154.2Zm-6,14.91a1.11,1.11,0,0,0,.27-.92c-.12-.14-.23-.29-.46-.2s-.19.39-.18.62A.59.59,0,0,0,10.84,169.11Zm4.67-12.39c-.46.5-.38.88-.22,1.57A1.84,1.84,0,0,0,15.51,156.72Zm-3.81,8.52c-.14.09-.14.18,0,.28C11.84,165.44,11.81,165.34,11.7,165.24Z"/><path class="cls-4" d="M3.87,180.66l-.58,0a3.09,3.09,0,0,0,1-1.4c.55-1.5,1.18-3,1.78-4.44,1.73.62,3.55.91,5.31,1.41a20.25,20.25,0,0,1,2.77.76,12,12,0,0,0-1.38,2.21,29.25,29.25,0,0,0-1.51,2.62,7,7,0,0,0-2.39-.44C7.19,181.08,5.52,180.88,3.87,180.66Z"/><path class="cls-2" d="M18.59,173.76l-2,3.23a51.26,51.26,0,0,0-5-1.35c-1.23-.34-2.48-.64-3.8-1-.11-1.28.73-2.21,1-3.43,2,.52,3.78,1,5.6,1.46C15.74,173.07,17.17,173.41,18.59,173.76Z"/><path class="cls-10" d="M17.11,149.6c.2.54.68,1,.47,1.75-.42.33-.83.84-1.56.76A15.49,15.49,0,0,1,17.11,149.6Z"/><path class="cls-11" d="M19.83,142.37l.44.4c.14.46-.53.58-.27,1s0,.59-.39.77l-.57-.23A4.26,4.26,0,0,1,19.83,142.37Z"/><path class="cls-3" d="M34.53,102.84c-.36-.38-.19-.85-.24-1.28s.1-.73-.29-1a3.52,3.52,0,0,1,.37-1.15c.05.22,0-.1.14,0a.28.28,0,0,1,0,.13C34.53,100.68,34.53,101.76,34.53,102.84Z"/><path class="cls-12" d="M12.68,161.23c.49.51.49.51.51,1.49-.35-.18-.64-.52-1-.35C12.37,162,12.27,161.5,12.68,161.23Z"/><path class="cls-13" d="M18.75,144.89c.05.16,0,.35.22.43.69.23.55.64.25,1.1l-.44-.13C18.57,145.83,18.22,145.37,18.75,144.89Z"/><path class="cls-14" d="M15.94,152.61l.34.58c.18.24.28-.09.44-.05.2.19.05.36,0,.5-.46.24-.8-.19-1.2-.13A2,2,0,0,1,15.94,152.61Z"/><path class="cls-15" d="M21.22,138.78l.26.87a.57.57,0,0,1-.32.43l-.45-.16A1.59,1.59,0,0,1,21.22,138.78Z"/><path class="cls-10" d="M17.41,149c.29,0,.61-.09.92.17-.27.56-.8.35-1.22.4Z"/><path class="cls-16" d="M10.18,169.54a1.74,1.74,0,0,0-.83.27,2.73,2.73,0,0,1,.55-1.39l.28,1.12Z"/><path class="cls-17" d="M28.73,116.65l.21.48c0,.31-.27.32-.49.35C28.47,117.17,28.41,116.85,28.73,116.65Z"/><path class="cls-13" d="M18.77,146.29l-.81.57C17.93,146.24,18.34,146.25,18.77,146.29Z"/><path class="cls-18" d="M29,116.09a.33.33,0,0,1,.19.45l-.44.11A.55.55,0,0,1,29,116.09Z"/><path class="cls-19" d="M27.33,120.79c.05.28.51.55,0,.83C27.26,121.35,26.92,121.07,27.33,120.79Z"/><path class="cls-20" d="M34,100.59a.58.58,0,0,1-.24.61C33.72,101,33.73,100.72,34,100.59Z"/><path class="cls-19" d="M27.34,121.62a.33.33,0,0,1-.28.28A.37.37,0,0,1,27.34,121.62Z"/><path class="cls-16" d="M10.15,167.83a.33.33,0,0,1-.2.33A.33.33,0,0,1,10.15,167.83Z"/><path class="cls-3" d="M78,59.37l-.16-.23.44-.09C78.31,59.23,78.16,59.29,78,59.37Z"/><path class="cls-1" d="M79.25,58.38c0-.16.15-.17.27-.12s.06.09,0,.1S79.37,58.53,79.25,58.38Z"/><path class="cls-4" d="M35.63,91.78c-.22.29-.52.25-.82.19A.94.94,0,0,1,35.63,91.78Z"/><path class="cls-21" d="M111.28,21.1a.42.42,0,0,1-.31-.36.57.57,0,0,0-.32-.51l1.44-1.38c0,.45-.32.75-.54,1.09A1.28,1.28,0,0,0,111.28,21.1Z"/><path class="cls-22" d="M112.12,21.15l0-.36a.77.77,0,0,1,.56-.5h0A.87.87,0,0,1,112.12,21.15Z"/><path class="cls-23" d="M112.66,19.48l-.1.05.12,0Z"/><path class="cls-22" d="M111.79,21.64a.28.28,0,0,1,.21-.27A.27.27,0,0,1,111.79,21.64Z"/><path class="cls-22" d="M112.64,20.29l.07-.07-.09.06Z"/><path class="cls-24" d="M110.16,19.75l-.28-.29a2.77,2.77,0,0,1,1-1c.17-.12.33-.05.37.18C110.78,18.9,110.55,19.4,110.16,19.75Z"/><path class="cls-3" d="M5,30.83c-.11.32,0,.77-.58.75V30l-.59-.64c.11-.56.58-.27.89-.38s.17-.72.62-.89c0,0,.17-.08.21,0a1.44,1.44,0,0,0,1.29.25c.4,1.59-.12,3.11-.14,4.67.3-.26.29-.75.75-.85.47.09.5.51.5.85a15.31,15.31,0,0,1-.5,4.21.43.43,0,0,1-.29-.49c0-.3,0-.6,0-.9a4.07,4.07,0,0,0,.08-2.61l-.32,1.25a.61.61,0,0,1-.7.29c-.41-1.27.28-2.62,0-3.93-.35.09-.14.95-.8.55V28.86C5.28,29.54,4.84,30.13,5,30.83Zm1.46-.77c0-.1,0,0,0,0Z"/><path class="cls-3" d="M3.79,29.39l.59.64v1.55c-.55-.26-.09-.87-.46-1.22a10.69,10.69,0,0,0-.68,3.06A2.67,2.67,0,0,1,3,34.75c-.13-.29,0-.66-.3-.89A9.18,9.18,0,0,1,3.79,29.39Z"/><path class="cls-3" d="M3.23,39.13c-.46.75-.11,1.58-.22,2.36-.06.42.2.92-.33,1.21a18,18,0,0,0,.06-3.36c0-.45,0-.9,0-1.35.38-.31.12-.78.29-1.14A5.18,5.18,0,0,1,3.23,39.13Z"/><path class="cls-3" d="M3,36.85c-.17.36.09.83-.29,1.14a20.36,20.36,0,0,1,0-4.13c.32.23.17.6.3.89C3,35.45,3,36.15,3,36.85Z"/><path class="cls-3" d="M28.71,83.12a4,4,0,0,1-1.08.58l-.31-.3a4.39,4.39,0,0,1,1.42-.66Z"/><path class="cls-2" d="M53.45,48.56l-.31-.26a1.08,1.08,0,0,1,.64-.77A1.07,1.07,0,0,1,53.45,48.56Z"/><path class="cls-25" d="M5,30.83c-.12-.7.32-1.29.49-2v2.51Z"/><path class="cls-26" d="M6.92,34.46l.32-1.25a4.07,4.07,0,0,1-.08,2.61C7,35.38,7.35,34.85,6.92,34.46Z"/><path class="cls-1" d="M25.74,81.54l-.5-.18a.83.83,0,0,1,.74-.9c.31.21.25.49.26.74Z"/><path class="cls-3" d="M28.71,83.12l0-.38.82-.45c.13.08.19.21.06.3A10.28,10.28,0,0,1,28.71,83.12Z"/><path class="cls-1" d="M21.84,83.34a1.21,1.21,0,0,0-.05-.18l.15.13Z"/><path class="cls-3" d="M75.79,59.58c.14.09.3.16.18.38-.23-.05-.14-.25-.18-.37Z"/><path class="cls-3" d="M77.2,59.9c-.24-.15-.42-.32-.18-.65.27.16.16.43.19.65Z"/><path class="cls-2" d="M44.8,124.4l-1.12-.17c-.28-.12-.28-.73-.81-.65v-1.21l-.61-.25a1.1,1.1,0,0,0-.35-.94c.1-.36.64-.63.26-1-.39-.2-.43.37-.87.2-.13-.34-.09-.83-.39-1.19l.28-.27.28,0h0c0,.41.15.71.61.78l.49-.22a3.69,3.69,0,0,1,1,2.88A3.42,3.42,0,0,1,44.8,124.4Z"/><path class="cls-3" d="M42.3,118.31c-.53-.21-.91-.74-1.62-.65.13-.53.16-1,.79-1C41.78,117.18,42.27,117.63,42.3,118.31Z"/><path class="cls-3" d="M42.57,119.42l-.49.22c-.46-.07-.6-.37-.61-.78.3-.15.65-.23.84-.55.16.09.27.24.19.4S42.49,119.19,42.57,119.42Z"/><path class="cls-3" d="M40.91,119.15c.3.36.26.85.39,1.19.44.17.48-.4.87-.2.38.41-.16.68-.26,1a1.1,1.1,0,0,1,.35.94l.61.25v1.21c-.23.36-.68.21-.95.35l-.27.53c-.43-.12-.52-.92-.24-2,0-.36-.49-.56-.3-1,.12-.28,0-.49-.22-.73A1.14,1.14,0,0,1,40.91,119.15Z"/><path class="cls-3" d="M42.23,127.11c-.25-.32-.52-.58-.38-1s.39-.15.63.11c.29-.68,1.07-.43,1.5-.91.41.25.22.74.49,1-.31.46-.62.21-.93.16A4.84,4.84,0,0,1,42.23,127.11Z"/><path class="cls-3" d="M44.26,131.06c-.46-.42-.8.19-1.2.18-.35-.4-.14-.78-.15-1.09.47-.35.78-.11,1.34.92Z"/><path class="cls-14" d="M16.8,154.2c-.22.53-.27,1-.88,1.17a1.14,1.14,0,0,1-.09-1.14C16.12,153.94,16.41,154,16.8,154.2Z"/><path class="cls-16" d="M10.84,169.11a.59.59,0,0,1-.37-.5c0-.23,0-.46.18-.62s.34.06.46.2A1.11,1.11,0,0,1,10.84,169.11Z"/><path class="cls-27" d="M15.51,156.72a1.84,1.84,0,0,1-.22,1.57C15.13,157.6,15.05,157.22,15.51,156.72Z"/><path class="cls-3" d="M41.47,118.86l-.28,0a.57.57,0,0,1-.42-.46l.19-.23C41.34,118.25,41.32,118.63,41.47,118.86Z"/><path class="cls-16" d="M10.18,169.54c.38,0,.72.1.77.69a1.1,1.1,0,0,1-.77-.69Z"/><path class="cls-28" d="M11.7,165.24c.11.1.14.2,0,.28C11.56,165.42,11.56,165.33,11.7,165.24Z"/><path class="cls-4" d="M6.42,30.06h0S6.43,30,6.42,30.06Z"/></g></g></svg>